<?xml version="1.0" encoding="utf-8"?>
<!-- Generator: Adobe Illustrator 19.2.1, SVG Export Plug-In . SVG Version: 6.00 Build 0)  -->
<svg version="1.1" id="Capa_1" xmlns="http://www.w3.org/2000/svg" xmlns:xlink="http://www.w3.org/1999/xlink" x="0px" y="0px"
	 viewBox="0 0 1131.4 332.6" style="enable-background:new 0 0 1131.4 332.6;" xml:space="preserve">
<style type="text/css">
	.st0{fill:#131111;}
	.st1{fill:#151313;}
	.st2{fill:#1A1919;}
	.st3{fill:#090807;}
	.st4{fill:#A61F23;}
	.st5{fill:#E1CCA4;}
	.st6{fill:#FFFFFF;}
	.st7{fill:#E2CDA4;}
	.st8{fill:#E0CBA2;}
	.st9{fill:#F7F7F7;}
	.st10{fill:#E7E6E5;}
	.st11{fill:#100F0D;}
</style>
<g>
	<path class="st0" d="M875.9,113.6c3.2-2,5.3-4.5,7.7-6.6c11.8-10.8,23.7-21.4,34.7-33c3.9-4.1,7.9-8.1,10.3-13.5
		c2.2-5-0.9-9-5.7-9.6c-1.4-0.2-2.7-0.1-4.1-0.1c-1.4,0-2.1-0.5-2.2-2c0-1.5,0.6-2.1,2.1-2c3,0.1,5.9,0,8.9,0c12.7,0,25.4,0,38.1,0
		c1.3,0,3.2-0.8,3.4,1.6c0.3,2.5-1.4,2.3-3.1,2.4c-8,0.9-14.5,5.1-20.3,10.2c-12.4,10.7-23.5,22.9-35.2,34.3
		c-4.2,4.1-8.4,8.3-12.7,12.4c-1.1,1.1-1.8,1.8-0.3,3.3c20.5,19.8,40.2,40.5,61.4,59.7c7.5,6.8,16.2,11.8,26.5,13.1
		c1.6,0.2,2.2,0.7,2.2,2.4c0,1.8-1.2,1.7-2.4,1.7c-21.1,0-42.1,0-63.2,0c-1.4,0-2.4-0.1-2.5-2c0-1.9,1.1-1.9,2.4-2
		c6.7-0.6,10-4.6,8.6-10.1c-0.4-1.7-1.6-3-2.8-4.2C917,158.9,906,148,895,137.1c-5.7-5.7-11.5-11.3-17.2-16.9
		c-0.4-0.4-0.8-1.1-1.6-0.9c-0.7,0.7-0.3,1.5-0.3,2.3c0,13,0,26,0,39.1c0,3.4,0.3,6.8,0.2,10.1c-0.2,8.7,4.9,11.7,12.5,13.1
		c1.3,0.3,2.7,0.2,4.1,0.3c1.3,0.1,3.1-0.6,3,2c-0.1,2.6-2,1.7-3.2,1.7c-15.4,0.1-30.7,0-46.1,0c-2.8,0-5.5,0.1-8.3,0
		c-1.3,0-3.1,0.7-3.1-1.9c0-2.4,1.6-1.7,2.9-1.8c2.8-0.3,5.7-0.2,8.5-1.1c4.6-1.4,7.5-4.3,8-9.2c0.4-4.2,0.9-8.4,0.9-12.6
		c0.1-30,0.1-59.9,0-89.9c0-3.2-0.6-6.3-0.6-9.5c0.1-5.8-3.7-8.9-9.1-10.6c-2.6-0.8-5.2-0.8-7.9-0.7c-1.5,0-2.6,0-2.6-2.1
		c0-2,1.1-1.9,2.5-1.9c18.6,0,37.3,0,55.9,0c1.5,0,2.3,0.3,2.3,2.1c0,1.9-1,2-2.5,1.9c-2.9-0.2-5.7,0-8.5,0.8
		c-5.5,1.6-8.1,5-8.5,10.8c-0.7,10.6-0.2,21.2-0.3,31.7C875.9,100.5,875.9,106.8,875.9,113.6z"/>
	<path class="st0" d="M1062.8,43.4c29.6-1.6,55.9,21.8,63.9,46.5c7.6,23.2,6.2,45.9-6.1,67.2c-9.8,16.9-24.2,28.7-43.5,32.7
		c-24.3,5.1-46.2-0.2-64-18.3c-11.8-12-18.2-26.7-19.9-43.4c-1.8-17.1-0.1-33.6,8.4-48.8C1013.3,58.2,1036.2,42.5,1062.8,43.4z
		 M1017.2,116.3c0,2.4-0.1,4.7,0,6.9c0.4,13.4,3,26.3,9.1,38.5c12.1,24,37.2,27.5,55.6,17c13.9-7.9,20.1-21.1,22.7-36.3
		c1.9-11,2.3-22,1.6-33.1c-0.8-12.4-3-24.5-8.5-35.8c-10.4-21.6-33.5-27-52.3-19.5c-10.4,4.1-16.8,12.5-21.2,22.4
		C1018.5,89,1016.9,102.6,1017.2,116.3z"/>
	<path class="st1" d="M493.6,110.4c8.3,0,16.5,0,24.8,0c1.3,0,2.9-0.3,2.8,1.9c0,2.1-1.3,2.1-2.8,2.1c-9-0.1-12.3,4.7-12.7,12.5
		c-0.4,9.4-0.2,18.8-0.3,28.3c0,7-0.1,14,0,21c0,2-0.6,3.1-2.5,4.1c-20.1,10.7-41.5,13.2-63.7,10.1c-27.4-3.9-47-18.5-57.1-44.3
		c-9.2-23.5-5.9-46.3,7.1-67.7c8.7-14.3,20.6-25,36.5-30.9c5.3-2,10.7-3.3,16.3-3.8c13.6-1.2,27-0.1,40,4.8c2.4,0.9,4.8,1.5,7.3,2.2
		c3.8,1,6.2-0.4,6.8-4.3c0.3-1.9,0.5-3,2.9-3c2.8,0,2,2,2.1,3.3c1.1,12.8,2.2,25.6,3.3,38.5c0.1,1.1,0.8,2.7-1.3,2.9
		c-1.6,0.1-2.9,0-3.6-2.1c-3.2-9.5-7.7-18.3-15.5-25c-10.2-8.7-22.3-11-35.3-9.9c-11.8,1-22.1,5.5-30.1,14.5
		c-8.4,9.5-13.2,20.8-15.3,33.2c-2.4,14.4-2,28.7,2.3,42.7c5.4,17.3,14.4,31.7,32,39c15.4,6.4,30.3,4.3,44.9-2.9
		c1.1-0.5,1.7-1.4,1.7-2.8c-0.2-15.7,0.2-31.3-0.3-47c-0.3-9.4-5.6-12.9-14.7-13.2c-1.2,0-3,0.8-3.5-1.1c-0.5-1.9,0-2.9,2.4-2.9
		C476.7,110.5,485.2,110.4,493.6,110.4z"/>
	<path class="st1" d="M712.9,80.7c0,8,0,15.7,0,23.4c0,20.8,0,41.5,0,62.3c0,3,0.4,6.1,0.9,9.1c0.9,4.9,5.1,8,11.2,8.5
		c1.8,0.2,3.6,0.2,5.4,0.3c1.3,0.1,2.5-0.1,2.5,1.9c0,2.1-1.3,1.8-2.6,1.8c-12.4,0-24.8,0-37.2,0c-2.6,0-5.3,0-7.9,0
		c-1.4,0-2.5,0-2.5-1.9c0-1.8,1.1-1.7,2.3-1.8c3-0.2,6.1-0.1,9.1-1c4-1.3,6.8-3.9,7.7-8c0.6-2.8,0.9-5.7,0.9-8.5
		c0.1-32.2,0-64.4,0.1-96.6c0-1.8-0.5-3.2-1.6-4.6c-5.1-6.5-10.9-11.8-19.4-13.2c-1.2-0.2-2.5-0.4-3.8-0.4c-2,0.1-3.1-0.3-3.1-2.7
		c0-2.5,1.3-2.4,3-2.4c10.7,0,21.4,0,32.1,0c1.6,0,2.7,0.6,3.7,1.8c20.3,24.9,40.7,49.8,61.1,74.6c7.4,9,14.7,18,22.1,27
		c0.6,0.7,1,1.6,2.4,1.8c0-1.4,0-2.7,0-4c0-25.3,0-50.6,0-75.9c0-3.8-0.4-7.6-0.9-11.3c-0.8-6.1-5.3-9.6-12-9.9
		c-1.7-0.1-3.4-0.1-5.1,0c-1.7,0.1-2.2-0.6-2.2-2.2c0-1.7,0.9-1.9,2.2-1.9c15.1,0,30.3,0,45.4,0c1.5,0,2.5,0.2,2.4,2.1
		c-0.1,1.9-1.2,1.9-2.6,2c-2,0-4.1-0.2-6,0.2c-7.5,1.4-10.2,4.6-11.1,13.1c-0.3,2.4-0.4,4.9-0.4,7.3c0,38.5,0,77.1-0.1,115.6
		c0,1.2,0.9,3-1,3.6c-1.8,0.5-3.3-0.1-4.7-1.7c-10.5-12.8-21-25.4-31.6-38.1c-18.8-22.6-37.5-45.3-56.3-67.9
		C715,82,714.6,81,712.9,80.7z"/>
	<path class="st0" d="M648.3,188c-8.5,0-16.9,0-25.4,0c-1.2,0-2.6,0.5-2.7-1.7c0-1.8,0.7-2.2,2.4-2.4c11.2-1.2,13.6-4.8,10.3-15.6
		c-2.7-8.7-6.7-16.8-10.1-25.2c-0.5-1.2-1.2-1.5-2.4-1.5c-16.9,0-33.9,0-50.8,0c-1,0-2,0.1-2.4,1.2c-3.8,9.7-8.7,19-11.8,29
		c-1.9,6.2,2,10.3,8.4,11.4c1.9,0.3,3.8,0.6,5.6,0.8c1.6,0.1,1.9,1,1.8,2.4c0,1.6-1.1,1.6-2.2,1.6c-13.7,0-27.3,0-41,0
		c-0.9,0-2.1,0.1-2.1-1.3c0-1.1-0.3-2.4,1.4-2.7c0.9-0.2,1.8-0.5,2.8-0.7c4.5-0.8,8-3,10.6-6.8c5.3-8,8.6-16.9,12.3-25.6
		c13.6-31.5,27-63.1,40.5-94.7c1.5-3.5,3-7,4.4-10.5c0.6-1.3,1.1-2.3,3-2.3c1.7,0,2.3,0.7,2.9,2.1c9.7,23.2,19.4,46.5,29.2,69.7
		c7.3,17.5,14.6,35,22.1,52.4c2.3,5.3,4.9,10.5,10.3,13.7c2.5,1.5,5.3,2.1,8.1,2.6c1.5,0.3,2.9,0.2,2.8,2.4
		c-0.2,2.6-2.1,1.7-3.3,1.7C664.8,188,656.5,188,648.3,188z M618.2,133.2c0.5-1.1-0.1-1.7-0.4-2.4c-7-16.8-14.1-33.6-21.2-50.4
		c-0.3-0.7-0.1-2-1.2-2c-1,0-0.9,1.2-1.3,2c-7.2,16.6-14.2,33.3-21.6,49.8c-1.4,3.1-0.2,2.9,2.1,2.9c10.9-0.1,21.8,0,32.7,0
		C610.9,133.2,614.6,133.2,618.2,133.2z"/>
	<path class="st2" d="M960.5,281.7c3.1,0,6.2,0.1,9.3,0c3.3-0.1,6.5-0.6,9.6-1.5c3.9-1.1,5.4-3.9,5.5-7.6c0.1-6.5,0-12.9,0.1-19.4
		c0-2-0.8-2.5-2.6-2.5c-24.8,0-49.6,0.1-74.3,0c-1.8,0-2.1,0.7-2.1,2.2c0,6.5-0.1,12.9,0.1,19.4c0.1,5.7,2.2,7.5,8.9,8.6
		c4.2,0.7,8.4,0.9,12.6,1c1.1,0,2.4-0.5,3.5,1.2c-25,0-49.6,0-74.3,0c2.6-1.6,5.5-1.2,8.3-1.4c3.6-0.2,7.2-0.4,10.6-1.6
		c4.1-1.5,5-2.8,5.2-7.3c0.5-10.1,0.2-20.1,0.2-30.2c0-5.8-0.1-11.6-0.1-17.5c-0.1-6.6-2-7.4-8.1-8.8c-4.5-1-9-0.9-13.6-0.9
		c-0.9,0-2.5,0.5-2.5-1c0-1.2,1.5-0.8,2.4-0.8c23.1,0,46.2,0,69.3,0c0.8,0,2.3-0.5,2.2,0.9c-0.1,1.2-1.5,0.9-2.4,0.9
		c-5.6,0-11.2,0-16.7,1.5c-3.6,1-5.4,3.4-5.5,6.8c-0.2,7.1-0.1,14.2-0.2,21.3c0,1.3,0.5,1.7,1.7,1.6c0.5,0,1.1,0,1.6,0
		c24.1,0,48.3-0.1,72.4,0.1c2.9,0,3.5-0.7,3.4-3.5c-0.2-5.7-0.1-11.4-0.1-17.2c0-8-2.3-8.4-8.8-9.8c-4.4-1-8.8-0.8-13.3-0.8
		c-0.9,0-2.3,0.3-2.3-0.9c0-1.3,1.5-0.9,2.3-0.9c23.1,0,46.2,0,69.3,0c0.8,0,2.2-0.6,2.1,1c-0.1,1.1-1.3,0.8-2.1,0.8
		c-5.9,0-11.8-0.1-17.6,1.8c-2.6,0.9-3.9,2.5-4.2,5.2c-0.4,3.9-0.2,7.8-0.2,11.7c0,12.2,0,24.4,0,36.5c0,7.1,1.8,9.1,8.9,10.1
		c4.5,0.6,9,0.9,13.6,0.9c0.7,0,1.7-0.1,1.6,0.9c-0.1,0.7-0.9,0.7-1.6,0.7c-2.1,0-4.2,0-6.4,0c-20.8,0-41.5,0-62.3,0
		c-1.2,0-2.5,0.5-3.5-0.6C960.5,282.5,960.5,282.1,960.5,281.7z"/>
	<path class="st2" d="M783.5,284.5c-11,0.7-22.2-1.3-33.5-3c-4.2-0.6-8.3-1.3-12.6-1.2c-2.4,0.1-4.6,0.5-5.9,2.9
		c-1.3,2.3-3.4,1.5-5.1,1.2c-1.9-0.3-1-2.1-1-3.2c-0.1-5.9-0.1-11.9,0-17.8c0-1-0.6-2.7,1.1-2.9c1.7-0.2,3.9-1.1,4.9,1
		c5.8,12.5,17.3,15.1,29.1,17.3c11.7,2.2,23.5,2.4,35.3,0.9c5.8-0.7,11.5-2,16.3-5.4c4.2-2.9,4.3-6,0.3-9.2
		c-4.8-3.9-10.7-5.3-16.6-6.8c-18.1-4.7-36.5-7.9-54.4-13.5c-5.1-1.6-10.2-3.6-14.2-7.3c-4.8-4.5-4.4-10.3,0.8-14.3
		c4.5-3.5,9.7-5.5,15.1-7c15.6-4.3,31.5-4.3,47.5-2.7c6.5,0.7,12.9,2.3,19.4,3.2c4.2,0.5,8.5,1,11.5-3.2c1.2-1.7,3.4-0.9,5-0.6
		c1.5,0.3,0.8,2,0.8,3c0.1,6,0.1,12.1,0,18.1c0,1,0.7,2.7-1.2,2.7c-1.6,0-3.8,1.2-4.8-1.1c-4.6-11.5-15-14.4-25.5-16.8
		c-11.1-2.5-22.4-3-33.7-1.3c-4.9,0.7-9.7,2-14,4.7c-4.7,3-4.7,6.6,0.2,9.3c5.5,3.1,11.6,4.6,17.6,6.1c15,3.6,30,6.9,45,10.5
		c7.1,1.7,14.3,3.5,20.6,7.6c9.4,6.1,9.4,13.9-0.3,19.6c-7.9,4.6-16.6,6.7-25.5,8.1C798.6,284.6,791.3,284.8,783.5,284.5z"/>
	<path class="st2" d="M451.5,284.5c-11,0.7-22.3-1.3-33.6-3c-4.3-0.6-8.6-1.4-12.9-1.2c-2.3,0.1-4.4,0.6-5.6,2.8
		c-1.2,2.3-3.4,1.5-5.1,1.2c-1.9-0.3-1-2.1-1-3.2c-0.1-5.9-0.1-11.9,0-17.8c0-1.1-0.7-2.8,1.3-3c1.9-0.1,4-0.9,5.1,1.8
		c2.4,5.3,6.3,9.3,11.6,11.7c8.7,3.9,17.9,5.5,27.3,6.2c10.5,0.8,20.9,0.8,31.2-1.6c3.8-0.9,7.5-2.1,10.7-4.6
		c3.4-2.7,3.6-5.6,0.4-8.4c-4.8-4.3-11-5.7-17-7.2c-18.1-4.7-36.5-7.9-54.4-13.5c-5.2-1.7-10.4-3.6-14.5-7.5
		c-4.5-4.3-4.4-9.6,0.4-13.7c4.5-3.9,9.9-5.9,15.5-7.4c15.6-4.3,31.5-4.3,47.5-2.7c6.6,0.7,13.1,2.3,19.7,3.2
		c4.1,0.5,8.3,0.9,11.2-3.2c1.3-1.8,3.4-1,5-0.7c1.6,0.3,0.9,1.9,0.9,3c0.1,6.1,0.1,12.3,0,18.4c0,0.9,0.6,2.5-1.1,2.5
		c-1.6,0-3.8,1.2-4.8-1.1c-4.7-11.5-15-14.5-25.5-16.8c-11.1-2.5-22.4-3-33.7-1.3c-4.9,0.7-9.7,2-14,4.7c-4.7,3-4.7,6.6,0.1,9.3
		c5.6,3.2,12,4.6,18.2,6.2c17.2,4.6,34.9,7.5,52,12.4c6.1,1.8,12.1,3.9,16.7,8.5c4.8,4.7,4.4,10.3-0.8,14.5
		c-5.1,4.1-11.2,6.3-17.4,8C474.2,284.1,463.2,285,451.5,284.5z"/>
	<path class="st2" d="M559,213.8c10.9,0,21.8,0,32.7,0c0.5,0,1.1-0.1,1.6,0c1,0.1,2.7-0.5,2.7,0.8c0,1.6-1.8,1-2.9,1
		c-4.2,0.1-8.4-0.1-12.7,0.6c-6.5,1.1-8.9,3.7-8.9,10.4c0,9.8,0,19.7,0,29.5c0,12,4.9,18.2,16.6,21.4c13.6,3.7,27.4,3.6,41.2,2.6
		c9.4-0.7,18.6-2.4,27.5-5.8c8.1-3.1,11.4-9.1,11.4-17.5c0-10.4,0-20.7,0-31.1c0-6-2.1-8.4-8-9.4c-4.2-0.7-8.4-0.7-12.7-0.7
		c-0.8,0-1.7,0-2.5,0c-0.6,0-1.3-0.2-1.3-1c0-0.6,0.7-0.7,1.2-0.7c0.6,0,1.3,0,1.9,0c18.3,0,36.6,0,54.9,0c0.5,0,1.1,0,1.6,0
		c0.6,0,1.5-0.1,1.5,0.8c0.1,1-0.8,1-1.6,1.1c-4.2,0.1-8.5-0.3-12.6,0.6c-0.8,0.2-1.7,0.2-2.5,0.5c-6.5,2.1-7.6,3.6-7.7,11.2
		c-0.1,8.7,0,17.4,0,26c0,12.8-4.6,19.3-16.6,23.9c-12.5,4.8-25.6,6.5-38.8,6.7c-13.2,0.2-26.4,0.6-39.6-1.1
		c-9.8-1.2-19.3-3.2-28.1-7.9c-6.8-3.6-10.5-9-10.7-16.7c-0.2-10.5-0.2-21-0.2-31.4c0-7.4-2.3-10-9.6-11.2c-4.3-0.7-8.7-0.4-13-0.5
		c-0.9,0-2.3,0.4-2.3-0.9c0-1.4,1.4-0.9,2.3-0.9C535.5,213.8,547.2,213.8,559,213.8z"/>
	<path class="st1" d="M1120.6,283.2c-25.1,0-49.8,0-74.5,0c0-0.3,0-0.6,0-0.8c3-0.7,6.2-0.4,9.3-0.6c3.4-0.2,6.7-0.6,10-1.6
		c3.6-1,5-3.5,5.1-6.8c0.2-7,0.2-14,0.2-20.9c0-9.4,0-18.8-0.2-28.3c-0.1-4.6-1.1-5.7-5.3-7c-5-1.6-10.2-1.7-15.4-1.6
		c-0.9,0-1.9,0-2.8-0.2c-0.3,0-0.5-0.5-0.8-0.8c0.3-0.2,0.6-0.6,0.9-0.7c0.7-0.1,1.5-0.1,2.2-0.1c22.7,0,45.3,0,68,0
		c1,0,2.9-0.6,2.9,0.9c0,1.4-1.9,0.9-2.9,0.9c-5.5,0.1-11-0.2-16.3,1.6c-3.3,1.1-4.8,3.3-5,6.5c-0.2,2.4-0.1,4.9-0.1,7.3
		c0,13.2,0,26.5,0,39.7c0,7.3,1.4,8.9,8.7,10.2c4.4,0.8,8.8,0.9,13.3,1C1118.5,282,1119.6,281.7,1120.6,283.2z"/>
</g>
<g>
	<path class="st3" d="M245.4,49.7c-0.9,3.8,1.7,7,5.6,7c3.9,0,7.7-0.7,11.6-0.9c3.1-0.1,6.1-0.2,9.2,0.5c5,1.2,8.7,5.6,8.9,10.7
		c0.1,2.5,0.4,5,0.7,7.6c0.7,5.9,0.6,11.8-0.2,17.7c-0.9,6.3-3.9,11.2-8.7,15.3c-5.5,4.6-11.6,8.1-18.1,11c-3.2,1.4-3.8,2.3-3.6,5.6
		c0.2,5.5,0.4,10.9,0.6,16.4c0.1,2.9,1.1,3.7,4,3.8c8.7,0.4,17.4,1,26,2c5,0.5,10.1,1.3,15.1,2c9.5,1.4,18.2,4.3,25.2,11.3
		c3.9,3.9,6.4,8.6,7.7,13.9c0.5,2.2,1.3,4,2.9,5.7c2.9,2.9,4.3,6.8,5.8,10.5c3.1,7.9,5.5,16,7.5,24.3c1.5,6.2,2.6,12.6,3.2,19
		c0.3,3.5,0.6,7,0.5,10.6c-0.5,13.6-3.5,26.6-9.5,38.9c-4.2,8.5-9.1,16.7-15.7,23.6c-4.5,4.7-9.6,8.7-15.9,10.8
		c-2.5,0.8-5,1.2-7.6,1.5c-8.6,0.7-17.1,1.4-25.7,2.1c-7.3,0.6-14.7,1.2-22,2c-3.6,0.4-7.1,1-10.7,1.2c-4.2,0.2-8.1-0.5-12-2.3
		c-5.2-2.4-10.9-3.7-16.4-5.3c-6.7-2-13.4-3.8-20.2-5.7c-2.9-0.8-5.7-1.6-8.7-1.9c-2.3-0.2-4.5,0.2-6.4,1.4
		c-9.9,5.9-20.3,11-31,15.2c-6.5,2.6-13.2,4.4-20,5.6c-6.7,1.2-13.4,1.9-20.2,1.8c-8-0.1-15.9-1.1-23.8-2.9
		c-16.3-3.7-30.7-11.6-44.6-20.5c-5.5-3.5-10.4-7.6-14.7-12.5c-5.7-6.5-9.6-13.9-12.8-21.8c-3.5-8.5-5.7-17.3-7.7-26.2
		c-1.2-5.2-2.4-10.5-3.1-15.8c-0.8-6.6-0.7-13,1.7-19.4c2.7-7.1,4.8-14.5,7.3-21.7c3.5-9.9,7.9-19.3,15.7-26.7
		c5.1-4.9,10.7-9.4,17.4-12.1c2.9-1.2,6-2,9.1-2.6c4.4-0.7,8.8-1.1,13.2-1c0.5,0,1,0,1.5,0.1c2,0.3,2.7,0,3.3-1.8
		c0.7-2.2,1-4.3-0.3-6.7c-3.3-5.8-4.5-12.3-4.8-18.9c-0.2-4.4-0.3-8.8-0.5-13.1c-0.1-1.3-0.2-2.6-0.4-3.8c-0.6-3-2.3-4.5-5.3-5.1
		C52,98.8,48,94.8,45.2,89.3c-4-7.9-4.6-16.3-3.1-25c1-5.5,2.8-10.7,5.2-15.8c2.4-4.7,6.4-7.2,11.3-8.5c2.9-0.7,5.8-0.8,8.7-0.6
		c0.1,0,0.2,0,0.3,0c2.2,1.2,3.2-0.3,4.3-1.9c1.6-2.5,3.3-4.9,4.9-7.3c0.3-0.5,0.5-0.9,0.4-1.5c-0.8-3.7-1.3-7.4-1.6-11.2
		c-0.5-5.6,2.4-10.5,7.4-12.4c2.9-1.1,6-1.1,9.1-1.5c7.9-0.8,15.8-1.2,23.6-1.6c7.6-0.4,15.3-0.6,22.9-0.9C143.9,1,149,1,154.1,0.6
		c10.2-0.8,20.5-0.7,30.7-0.2c7.5,0.4,15,0.9,22.4,2.2c6.4,1.1,12.7,2.8,18.8,4.9c4,1.4,8.1,2.6,11.8,4.9c1.8,1.1,3.5,2.5,5.2,3.7
		c2.6,1.9,3.6,4.5,4.2,7.5c0.9,4,1.8,8.1,2.6,12.1c0.7,3.4-0.1,6.5-1.9,9.4c-0.7,1.1-1.5,2.2-2.2,3.4c-0.9-1-2.1-1.6-3.4-2.2
		c-1.1-0.5-2.2-0.9-3.2-1.5c-2.7-1.6-5.6-2.6-8.6-3.2c-3-0.6-6.1-1.3-9.1-0.4c-4.4,1.2-7.7,4.1-11,7.1c-0.9,0.8-1.3,0.9-1.9-0.1
		c-1-1.6-0.6-3,0.4-4.4c1.1-1.6,0.7-2.9-0.9-3.5c-1.5-0.5-2.9-1-4.5-1.2c-5.2-0.7-10.3-2.6-15.7-2.5c-0.1,0-0.3-0.1-0.4-0.1
		c-6.7-2-13.5-3.4-20.2-4.9c-1.6-0.4-2.9,0-4.2,0.8c-1.7,1.1-3.3,2.4-4.9,3.7c-0.5,0.4-0.9,0.8-1.5,0.2c-1.3-1.1-2.9-1.9-3.8-3.3
		c-2.1-3.3-5.3-4-8.8-4.1c-6-0.1-12-0.4-18-0.4c-7,0-14,1.4-21,0.9c-3.5-0.2-6.6,0.4-9.1,2.9c-0.3,0.3-0.7,0.5-1.1,0.8
		c-1.8,1.1-2.6,1.1-4.3-0.1c-1.5-1.1-2.6-1-3.8,0.3c-0.4,0.5-0.8,1-1.2,1.6c-1.8,3.2-0.2,8.3,3,9.2c3,0.8,6.1,1.3,9.2,1.4
		c1.1,0,2.1-0.7,3.2-0.6c1.3,0.1,2.1-0.6,2.8-1.6c1.6-2.2,3.8-3.9,5.8-5.7c0.3-0.3,0.7-0.6,1.2-0.4c0.5,0.2,0.3,0.8,0.4,1.2
		c0.1,1-0.3,1.9-0.6,2.9c-0.6,2.3,0.1,3.7,2.5,4c3.9,0.5,7.7,1.2,11.7,1.5c3.5,0.2,6.9,0.6,10.4,1c5.1,0.7,10.2,1.4,15.4,1.4
		c2.4,0,4.5-0.6,6.1-2.5c0.7-0.9,1.6-1.6,2.4-2.4c0.8-0.8,1.7-1.2,2.7-1.6c0.9-0.3,1.6-0.1,1.5,1.1c-0.1,0.7,0,1.5,0,2.2
		c0.3,3.2,1.6,4.8,4.5,4.9c4.1,0.1,8.2,0.8,12.3,0.7c3.8-0.1,5-1.5,4.4-5.2c-0.1-0.8,0-1.5,0.8-1.9c1.6-0.7,3.3-0.8,5-0.7
		c0.9,0.1,1.1,0.7,0.6,1.4c-0.2,0.3-0.5,0.6-0.8,0.9c-2.6,2.7-2.1,4.6,1.6,5.6c0.4,0.1,0.9,0.2,1.3,0.2c6.9,0.5,13.7,1,20.5,2.3
		c5.6,1.1,11.3,1.5,17,1.5c1.3,0,2.6,0.4,4-0.1c2.9-0.9,5.1-2.9,7.3-4.8c0.4-0.4,0.8-1,1.5-0.7C243.8,50.1,244.6,49.9,245.4,49.7z
		 M206.9,170.1c3.7-0.4,8.2,0.6,12.8-0.6c3.4-0.9,6.7-2,9.3-4.3c4-3.5,5-8.1,4-13c-0.6-2.9,0-5.6,0.4-8.4c0.5-3.6,0.6-7.3,0.2-10.8
		c-0.5-3.6-0.4-7.2,0-10.9c0.3-2.8,0.7-5.7,0.1-8.3c-0.7-3.1,0.2-5.5,1.9-7.8c1.6-2.2,3.7-3.7,5.7-5.5c0.6-0.5,1.2-0.9,1.9-0.6
		c1.4,0.5,2.8,0.8,3.7,2.1c0.7,0.9,1.3,1.9,2,2.7c1.4,1.7,3.1,1.5,5.1,1.1c4.5-1,8.1-3.5,10.9-7c2.4-3,4.5-6.4,5.6-10.3
		c0.7-2.3,1.4-4.6,0.7-6.9c-1.4-4.2-4.8-6.5-8.8-8.1c-1.9-0.8-4-0.6-6-0.6c-4.2-0.1-7.8,1.1-11.1,3.4c-1.5,1-3,1.9-4.6,2.7
		c-1.6,0.8-2.1,0.5-2.9-1c-0.9-1.9-1.3-3.8-0.3-5.8c0.5-1.2,0.3-2.3-0.9-3c-1.2-0.8-2.3-0.4-3.2,0.6c-0.4,0.5-0.9,0.9-1.5,0.9
		c-3.5-0.1-6.7,1.3-10.1,2c-2.3,0.4-4.7,1.4-7,0.7c-3.8-1.1-7.4,0.4-11.1,0.2c-0.2,0-0.4,0.1-0.6,0.2c-4.1,2-8.6,3.1-13.1,3.7
		c-1.3,0.2-2.6,0.8-3.9,0.7c-1.6-0.1-3,0.4-4.5,0.9c-1.4,0.5-2.9,0.6-4.3-0.2c-2.3-1.3-4.4-3-6.1-5c-2.1-2.6-2.7-7.1-0.6-10
		c0.6-0.8,1.1-1.6,1.2-2.7c0.2-2.2-1.4-4.3-3.9-5.2c-4.1-1.6-8.5-1.1-12.8-1.7c-2.7-0.4-5.5,0-8.2-0.1c-2-0.1-3.5,1-4.9,2.2
		c-1.1,1.1-0.7,2.8,0.7,3.5c0.5,0.3,1.1,0.5,1.7,0.6c1.2,0.2,1.7,0.8,1.6,2.1c-0.2,2.1-0.1,4.2,0.5,6.3c0.6,2.2-0.4,4-2.4,4.4
		c-1.4,0.3-2.9,0.4-4.4-0.1c-1.3-0.5-2.8-1.2-4,0.2c-0.8,0.9-1.5,0.7-2.4,0.5c-4.8-1.5-9.4-3.7-14.7-3.4c-1,0.1-1.9-0.4-2.6-1.3
		c-2.8-3.6-4.4-4-9.5-3c-1.2,0.2-2.3,0.3-3.2-0.8c-0.6-0.7-1.4-1.3-1.9-2.1c-1.6-2.1-3.8-2.5-6.1-2c-1.3,0.3-1.5-0.2-1.8-1.2
		c-0.8-2.7-1.6-5.4-2.5-8.1c-1-2.9-3.7-4.6-5.9-3.7c-1.7,0.7-3.4,1.6-4.6,3.1c-1.1,1.4-2.5,1.8-4.2,1.2c-0.7-0.3-1.4-0.3-2.1-0.3
		c-2.6,0.1-5.2,0-7.9,0.4c-2.5,0.4-5.1,0.5-7.5,1.4C56.2,55.1,53.8,57,54,60c0.2,2.3,0.1,4.5,0.5,6.8c0.7,3.5,1.5,6.9,3.2,10.1
		c1,2,2.2,4,3,6.1c0.8,2.2,1.8,4.4,3.4,6.2c1.4,1.6,3.3,2.4,5.3,2.2c2.5-0.2,4.4-3.6,3.6-6.1c-0.6-1.9-1.6-3.6-2.5-5.4
		c-0.8-1.8-2-3.2-3.5-4.4c-2.1-1.5-3.3-3.7-4.6-5.8c-0.4-0.7-0.4-1.5-0.2-2.3c0.7-2.1,2.4-3.2,4.2-3.9c1-0.4,2,0,2.8,0.9
		c0.6,0.7,0.6,1.6,0.5,2.4c-0.4,4.6,1,8.6,4.6,11.5c2.1,1.6,3.8,3.6,5.8,5.3c2.1,1.8,2.8,5.2,1.7,7.6c-1,2.4-2.1,4.8-3.1,7.3
		c-1.2,3.1-1.5,6.2,0.3,9.3c0.4,0.7,0.6,1.5,0.7,2.3c0.3,3.3,1.1,6.6,1.4,10c0.2,1.8,0.3,3.6,0.7,5.3c0.9,4.5,2,8.9,2.6,13.4
		c0.6,4.3,2.4,7.9,5,11.3c2.7,3.5,6.5,5.4,10.4,7.1c7.5,3.4,15.2,6.3,23.3,7.7c4.8,0.9,9.6,1.6,14.4,2c4.9,0.4,9.8,0.8,14.7,1.2
		c7.3,0.6,14.6-0.3,21.9,0.8c4.1,0.6,8.2,0,12.3,0.4c4.4,0.4,8.8,1,13.2,0.8C201.7,170,203.9,170.1,206.9,170.1z M24.2,224.1
		c0,9.2,1.3,18.3,3.6,27.3c0.5,1.8,1,3.5,1.9,5.1c0.2,0.5,0.4,1,1.2,0.4c1.8-1.5,3.9-2.5,6.1-3.3c8.3-3.2,16.3-7.1,25.5-7.2
		c5.5-0.1,10.9,0.1,16.4,0.7c4.2,0.5,8.1,2.2,12.1,3.6c4.1,1.5,8.2,1.7,12.3-0.3c5.8-2.8,10.1-7.3,14-12.3c1.9-2.4,3.4-5,6.1-6.7
		c1.3-0.8,2.6-1.1,4.1-0.3c1.6,0.9,2.6,0.3,2.8-1.6c0.1-1.7,0-3.5-0.3-5.2c-0.7-3.4-2.2-6.6-3.5-9.8c-4.6-11.1-9.2-22.2-13.8-33.4
		c-1.6-3.9-3.6-7.4-7.4-9.6c-4.4-2.6-9.2-3.3-14.1-3.5c-6-0.2-11.8-1.5-17.2-3.8c-2.5-1.1-4.2-1-6.6,0c-7.2,3.1-14.4,6.1-20.9,10.7
		c-8.8,6.3-15.1,14.4-18.6,24.7C25.1,207.5,24.2,215.8,24.2,224.1z M325.2,244.2c0-3.1-0.3-6.3-0.7-9.4c-0.6-4.5-1.3-9.1-3.5-13.1
		c-2-3.6-3.4-7.5-4.8-11.3c-1.5-4.2-2.9-8.5-5.4-12.2c-4-6.1-7.9-12.3-12.2-18.2c-1.1-1.6-2.3-3.1-4.1-4c-5.8-3.1-12.2-4.1-18.6-4.6
		c-4.8-0.3-9.6,0.2-14.4,0.5c-7.9,0.4-15.8,0.9-23.7,1.3c-1.3,0.1-2.9-0.1-3.9,0.8c-2,1.8-4.4,3.1-6.4,4.9c-0.9,0.9-1.7,1.9-2.1,3.2
		c-1.5,5.3-3.3,10.6-5.1,15.8c-1.7,4.8-3.1,9.8-5.8,14.3c-0.4,0.8-0.7,1.6-0.8,2.5c-0.1,1.4,0.4,2.4,1.8,2.9c1.3,0.5,2.6,0.6,4,0.5
		c7.8-0.6,15.7-0.9,23.5,0c6.5,0.7,12.7,2.2,18.7,4.7c11.2,4.8,20.9,11.6,28.6,21.1c0.9,1.1,1.6,1.6,3,0.9c0.6-0.3,1.3-0.3,1.9-0.3
		c5.8-0.4,11.4,0.4,16.9,1.9c4,1.1,8,2.4,11.5,4.8c1,0.6,1.5,0.3,1.6-0.8C325.5,248.4,325.2,246.3,325.2,244.2z M157.7,239.9
		c-3.8-0.4-8,0.3-12.1,1.3c-3.2,0.8-6,2.4-8.6,4.3c-1.3,1-1.4,3.1-0.1,3.4c1.5,0.3,2.4,1.2,3.3,2.1c1.9,1.9,4.4,2.7,6.4,4.4
		c3.2,2.6,6,5.5,9.3,8c6.3,4.7,13.3,8.2,19.4,13.3c6.7,5.6,14.6,9.6,21.7,14.7c2.5,1.7,5,3.5,7.8,4.7c2.3,1,4.7,1.9,6.5,3.7
		c0.9,0.8,1.9,1.5,3,1.9c3,1,5.7,2.8,8.8,3.5c3.4,0.8,6.4,2.9,9.8,4c6.8,2.2,13.7,3.1,20.9,2.2c1.8-0.2,3.5-0.6,5.3-0.6
		c2.4,0,4.7-0.8,6.5-2.3c3-2.4,6.3-4.5,9.5-6.7c5.1-3.6,9.1-8.1,12.9-13c3.6-4.7,6.3-9.8,8.7-15.2c0.7-1.5,1.2-3.2,2.3-4.5
		c1.5-1.7,2.4-3.7,3.3-5.8c0.8-2.1,0.1-4.3-1.6-5.2c-0.8-0.4-1.6-0.9-2.4-1.2c-2.9-1.3-5.9-0.5-7,2.1c-0.9,2-1.6,4.1-1.7,6.3
		c-0.1,2-0.9,3.6-2.1,5.1c-2.5,2.9-4.9,5.9-7.6,8.6c-2.4,2.5-5.3,4.3-9.1,4.2c-1.7,0-3.5,0.2-5.2,0.4c-3.7,0.4-7.5,0.9-11.3-0.2
		c-5.9-1.7-11.4-3.9-16.3-7.7c-4.5-3.5-8.7-7.3-12.7-11.5c-1.3-1.4-2.9-2.3-4.7-2.8c-2.8-0.8-5.4-1.8-7.8-3.5
		c-3.9-2.7-7.4-5.9-11.9-7.6c-2.3-0.9-4.2-2-5.8-3.9c-1.3-1.5-3.4-2.4-5.3-2.8c-3.9-0.9-7.8-1.4-11.7-2
		C171.5,240.7,164.9,239.9,157.7,239.9z M115,311.7c2.3,0.3,4.6-0.4,6.8-0.5c2.6-0.1,5.2-0.6,7.8-1c3.6-0.5,6.9-2.2,10.6-2.4
		c1.8-0.1,3.4-0.9,5-1.9c2.1-1.4,4.3-2.6,6.5-3.8c2.3-1.3,4.7-2.5,7-3.9c3.1-1.9,3.8-4.5,1.8-7.6c-1.5-2.3-3-4.6-4.9-6.5
		c-7-6.6-14.4-12.7-23.4-16.3c-3.5-1.4-6.6-3.7-10-5.2c-4-1.7-8.1-3.1-12.1-4.7c-1.6-0.6-3.1-0.4-4.4,0.7c-1.3,1.1-2.7,2-4.3,2.7
		c-1.7,0.7-3.1,1.7-4.6,2.7c-3.6,2.5-7.2,5.1-10.9,7.5c-3.3,2.2-6.8,3.4-10.8,1.7c-2.3-1-3.6-5-1.9-6.9c1.5-1.7,3.2-3.2,5.5-3.9
		c1.3-0.4,2-1.8,1.3-2.9c-1.5-2.4-3.5-4.3-6.6-4.6c-1.7-0.2-3.2,0.8-4.8,0.6c-1-0.1-1.9,0.2-2.7,0.5c-1.5,0.6-3,1.1-4.5,1.8
		c-2.1,0.8-4.6,1.3-4,4.5c0,0.2-0.2,0.5-0.3,0.7c-0.7,0.8-0.7,1.7-0.7,2.7c0,2.6,0.7,5.1,1.6,7.5c0.7,1.8,1.4,3.5,1.9,5.3
		c1.7,6.4,4,12.5,7.7,18c3.3,4.9,7.8,8.1,13.3,10c3.3,1.2,6.7,1.3,10.1,1.9C98.9,310.3,106.9,311.2,115,311.7z M236.4,229.8
		c-1.7-0.4-4.2,0.7-6.8,0.7c-2.9,0-5.5,1.1-8.3,1.4c-2.6,0.4-4.7,2-7.3,2.2c-1,0.1-2.2,0.6-3.1,1.3c-1.4,1.2-1.4,3.4,0.3,3.7
		c2.5,0.5,3.1,2.8,4.6,4.1c0.9,0.8,1.5,1.8,2.9,1.7c1.4-0.1,2.1-0.9,2.6-2.1c0.3-0.6,0.5-1.2,1.2-1.4c1.7-0.6,3.7,0.1,4.7,1.7
		c0.5,0.9,1,1.8,1.3,2.8c1.8,4.9,4.1,9.6,6.6,14.2c2,3.6,4.4,6.9,5.6,10.8c0.4,1.4,1.4,2.3,2.6,3c1.2,0.6,2.4,0.9,3.6-0.1
		c1.2-1,1.1-2.2,0.7-3.5c-0.2-0.5-0.4-1-0.7-1.5c-2.1-4.1-3.7-8.3-5.5-12.6c-0.8-2-1.1-4.2-2.3-5.9c-1.5-2.3-1.1-4.3,0.1-6.4
		c0.4-0.7,0.7-0.8,1.4-0.3c1.2,0.9,2.2,2,3,3.3c0.9,1.6,1.6,3.4,2.8,4.7c3.2,3.6,4.6,8.2,6.8,12.3c1.7,3.2,3.1,6.7,4.3,10.1
		c0.6,1.8,2,2.6,3.6,2.1c1.5-0.5,2.3-1.9,1.7-3.7c-1.3-4.5-3.4-8.7-5.5-12.8c-0.9-1.7-1.2-3.4-1.3-5.2c-0.1-1.9,0.5-2.4,2.4-2.6
		c2.3-0.2,4.4,0.7,6.5,1.3c1.1,0.3,1.9,0.9,2.4,1.9c1,1.7,2.2,3.2,3.6,4.5c0.5,0.5,0.9,1,1.1,1.7c0.4,1.4,1.3,2.3,2.7,2.4
		c1.4,0.1,2.4-0.6,3.1-1.7c1.5-2.2,1.1-4.4-0.1-6.6c-2.1-3.8-4.9-7.1-7.6-10.5c-1.4-1.8-2.4-3.9-4.4-5.2c-3.3-2-6.5-4.4-10.2-5.9
		C249.6,231.4,243.6,230,236.4,229.8z M154.8,185.1c0,0.9,0.1,1.9,0.3,2.8c0.7,2.8,1.6,5.5,1.9,8.4c0.5,3.6,1.2,7.2,3.1,10.5
		c1,1.7,1.9,3.5,2.8,5.2c1.2,2.1,2.3,4.3,3.6,6.4c1.1,1.8,3.2,2.3,4.6,1.2c2.7-2.1,4.4-4.8,5.1-8.1c0.3-1.4,0.7-2.6,1.5-3.7
		c0.4-0.5,0.7-1.1,0.9-1.7c1-2.4,1.4-5.1,3-7.2c1.1-1.4,2.4-2.8,3-4.6c0.3-0.8,0.8-1.6,1.4-2.2c1.6-2,1.7-3.7,0.2-5.8
		c-0.4-0.5-0.7-1.1-1-1.6c-1-2.1-2.6-3.7-4.4-5.2c-2-1.6-3.4-1.4-5,0.6c-0.7,0.9-1.5,1.3-2.7,1.4c-5.3,0.4-10.6,0.5-16-0.1
		c-1.4-0.2-2.4,0.8-2.5,2.2C154.8,184,154.8,184.5,154.8,185.1z M126.7,176c-0.2,0-0.5,0-0.7,0c-2.5,0-3,1-1.8,3.2
		c0.5,0.9,1,1.7,1.4,2.6c2.1,4.9,3.6,10.1,5.2,15.2c1.9,6.2,4.6,11.9,8.6,17c2.6,3.3,5.6,6.2,9.6,7.8c1.8,0.7,2.8,0.3,3.6-1.5
		c0.5-1.2,1-2.4,1.6-3.5c1.6-3.2,1-6.3-1.2-8.9c-1.7-2-3-4.2-4.1-6.5c-1.1-2.3-2.2-4.5-3.2-6.9c-1.7-3.9-3.6-7.7-4.3-12
		c-0.3-2.1-1.4-3.5-3.3-4.3C134.4,176.7,130.5,176.5,126.7,176z M210.6,188.4c0-0.3,0-0.6,0-0.9c-0.1-3-1.5-5.3-3.9-5.5
		c-3.5-0.3-5.8-0.1-7.1,3.6c-3.9,10.8-8,21.5-13.2,31.7c-0.8,1.7-1.4,3.4-0.9,5.3c0.9,3.5,3.4,5.5,6.5,6.5c2.7,0.9,4.2-0.2,4.4-3.1
		c0.1-1.7,0.2-3.5,0.4-5.2c0.3-2.5,1.1-4.7,3.5-6.1c1.8-1,2.1-1.8,1.6-3.8c-0.6-2.5-0.4-2.8,2-3.5c1.9-0.6,3.6-1.5,4-3.6
		C209,198.8,210.1,193.6,210.6,188.4z M323.5,269.6c0-0.8,0-1.6,0-2.4c0-2.2,0-4.5-1.5-6.4c-0.9-1.2-2-1.7-3.5-1.2
		c-2.8,0.9-5,2.7-6.8,4.8c-0.5,0.6-0.6,1.3-0.4,2.1c1.6,8,0,15.2-5.6,21.3c-0.5,0.6-0.9,1.2-1.2,1.9c-0.5,1.6,0,2.4,1.7,2.4
		c2.1,0,3.8-1.1,5.5-2.1c3.4-2.1,6.4-4.8,9.5-7.4c1-0.8,1.5-1.8,1.6-3C323.1,276.2,323.6,272.9,323.5,269.6z M44,271.8
		c0-0.9,0-1.8,0-2.7c0-0.9,0-1.9,0.1-2.8c0-0.7-0.1-1.4-0.3-2.1c-0.8-2.2-2-2.6-3.7-0.9c-1.9,1.9-3.6,4-5.2,6.2
		c-0.5,0.7-0.7,1.6-0.7,2.5c0.2,3,0.8,5.9,1.7,8.8c1.8,5.1,4.5,9.5,9.7,11.9c1,0.5,2,1.3,3,0.3c0.8-0.9,0.2-2.1-0.3-3.1
		c-0.8-1.6-1.8-3-2.4-4.6C44,281,44,276.4,44,271.8z M177.1,14.4c-1.5,0.5-3.1,0.7-4.1,2.2c-0.7,1-0.9,2-0.1,3
		c1.2,1.5,2.5,2.9,4.2,3.8c0.8,0.4,1.6,0.7,2.4,0.3c1.4-0.6,2.8-0.7,4.3-0.2c1.4,0.5,2.5-0.5,3.2-1.6c0.7-1.1-0.1-2-0.8-2.7
		c-0.3-0.3-0.6-0.6-1-0.9c-2.3-1.2-4.6-2.4-6.9-3.6C178,14.7,177.5,14.6,177.1,14.4z M226.5,23.1c0.2-1.6-0.9-2.5-2.1-3.1
		c-1.1-0.7-2.2-0.2-3.1,0.7c-0.7,0.6-1.2,1.4-1.6,2.3c-1,2.7-2,5.5-3.1,8.2c-0.5,1.1-0.3,2.2,0.6,2.8c0.9,0.6,2.1,1,3.2,0.2
		C224.2,31.4,225.9,27.6,226.5,23.1z M103.8,15.9c-0.1-1.6-0.3-3.3-1.3-4.7c-0.9-1.3-1.9-1.3-2.8,0c-1.6,2.2-1.6,7.4,0,9.7
		c0.9,1.3,2,1.4,2.9,0C103.6,19.4,103.8,17.7,103.8,15.9z M128.8,24.2c1.8,0,3.1-0.9,3.1-2c0-1.1-1.3-2-2.8-2.1
		c-0.6,0-1.1,0.1-1.6,0.3c-0.8,0.3-1.4,0.9-1.4,1.8c0,0.9,0.7,1.4,1.4,1.7C128,24.1,128.5,24.2,128.8,24.2z M210.4,15.4
		c-1.3,0-2.3,0.8-2.3,1.9c0,1.2,1.1,2.2,2.4,2.3c1.2,0,2.2-0.9,2.2-1.9C212.7,16.5,211.6,15.4,210.4,15.4z M156.9,20.8
		c-1.1,0-2,0.9-2.1,1.9c-0.1,1.1,0.8,2,1.9,2.1c1.1,0.1,2.1-0.9,2.2-2C158.8,21.7,157.9,20.8,156.9,20.8z M91.4,24.3
		c-0.1-0.8-0.6-1.1-1.3-1.1c-0.8,0-1.4,0.3-1.4,1.1c0,0.8,0.7,1.1,1.3,1.1C90.7,25.4,91.3,25.1,91.4,24.3z"/>
	<path class="st4" d="M245.4,49.7c-0.8,0.1-1.5,0.4-2.3,0.1c-0.7-0.3-1,0.3-1.5,0.7c-2.2,1.9-4.4,3.8-7.3,4.8
		c-1.4,0.5-2.6,0.1-4,0.1c-5.7,0-11.4-0.4-17-1.5c-6.8-1.3-13.7-1.8-20.5-2.3c-0.4,0-0.9-0.1-1.3-0.2c-3.6-1-4.1-2.8-1.6-5.6
		c0.3-0.3,0.6-0.6,0.8-0.9c0.4-0.7,0.2-1.3-0.6-1.4c-1.7-0.2-3.4-0.1-5,0.7c-0.8,0.4-0.9,1.1-0.8,1.9c0.6,3.7-0.6,5.2-4.4,5.2
		c-4.1,0.1-8.2-0.7-12.3-0.7c-2.9,0-4.2-1.7-4.5-4.9c-0.1-0.7-0.1-1.5,0-2.2c0.1-1.2-0.5-1.4-1.5-1.1c-1,0.3-1.9,0.8-2.7,1.6
		c-0.8,0.8-1.7,1.6-2.4,2.4c-1.6,1.9-3.7,2.5-6.1,2.5c-5.2,0.1-10.3-0.7-15.4-1.4c-3.4-0.4-6.9-0.8-10.4-1c-3.9-0.2-7.8-1-11.7-1.5
		c-2.4-0.3-3.1-1.7-2.5-4c0.3-1,0.7-1.9,0.6-2.9c0-0.4,0.2-1-0.4-1.2c-0.5-0.2-0.9,0.1-1.2,0.4c-2.1,1.8-4.2,3.5-5.8,5.7
		c-0.7,1-1.5,1.7-2.8,1.6c-1.1-0.1-2,0.7-3.2,0.6c-3.1-0.1-6.2-0.6-9.2-1.4c-3.2-0.8-4.8-6-3-9.2c0.3-0.6,0.7-1.1,1.2-1.6
		c1.3-1.3,2.4-1.4,3.8-0.3c1.7,1.2,2.5,1.3,4.3,0.1c0.4-0.2,0.8-0.4,1.1-0.8c2.5-2.5,5.6-3.1,9.1-2.9c7,0.5,14-0.9,21-0.9
		c6,0,12,0.2,18,0.4c3.5,0.1,6.7,0.9,8.8,4.1c0.9,1.4,2.5,2.2,3.8,3.3c0.6,0.5,1,0.2,1.5-0.2c1.6-1.3,3.1-2.6,4.9-3.7
		c1.3-0.8,2.6-1.2,4.2-0.8c6.8,1.5,13.6,2.9,20.2,4.9c0.1,0,0.3,0.1,0.4,0.1c5.4-0.2,10.4,1.7,15.7,2.5c1.5,0.2,3,0.7,4.5,1.2
		c1.6,0.5,1.9,1.9,0.9,3.5c-1,1.4-1.4,2.8-0.4,4.4c0.6,1,1,1,1.9,0.1c3.2-3,6.6-5.9,11-7.1c3.1-0.9,6.1-0.1,9.1,0.4
		c3,0.6,5.9,1.6,8.6,3.2c1,0.6,2.2,1,3.2,1.5c1.2,0.6,2.4,1.1,3.4,2.2C245.7,48.9,245.7,49.3,245.4,49.7z"/>
	<path class="st5" d="M206.9,170.1c-3,0-5.2-0.1-7.3,0c-4.4,0.2-8.8-0.4-13.2-0.8c-4.1-0.4-8.2,0.2-12.3-0.4
		c-7.3-1.1-14.6-0.2-21.9-0.8c-4.9-0.4-9.8-0.9-14.7-1.2c-4.8-0.4-9.6-1.1-14.4-2c-8.2-1.5-15.8-4.4-23.3-7.7
		c-3.8-1.7-7.7-3.6-10.4-7.1c-2.5-3.3-4.4-6.9-5-11.3c-0.6-4.5-1.7-8.9-2.6-13.4c-0.3-1.8-0.5-3.5-0.7-5.3c-0.3-3.4-1.1-6.6-1.4-10
		c-0.1-0.8-0.3-1.6-0.7-2.3c-1.8-3.1-1.5-6.2-0.3-9.3c0.9-2.5,2-4.8,3.1-7.3c1.1-2.5,0.4-5.9-1.7-7.6c-2-1.7-3.7-3.7-5.8-5.3
		c-3.7-2.9-5-6.9-4.6-11.5c0.1-0.9,0-1.7-0.5-2.4c-0.7-1-1.7-1.3-2.8-0.9c-1.8,0.8-3.5,1.9-4.2,3.9c-0.3,0.8-0.3,1.6,0.2,2.3
		c1.3,2.1,2.5,4.3,4.6,5.8c1.5,1.1,2.7,2.6,3.5,4.4c0.8,1.8,1.9,3.5,2.5,5.4c0.8,2.5-1.1,5.8-3.6,6.1c-2,0.2-3.9-0.7-5.3-2.2
		c-1.6-1.8-2.6-4-3.4-6.2c-0.8-2.2-1.9-4.1-3-6.1c-1.6-3.2-2.5-6.6-3.2-10.1c-0.4-2.3-0.4-4.5-0.5-6.8c-0.2-3.1,2.2-4.9,4.6-5.8
		c2.4-0.8,5-1,7.5-1.4c2.6-0.4,5.2-0.3,7.9-0.4c0.7,0,1.4,0.1,2.1,0.3c1.7,0.7,3.1,0.2,4.2-1.2c1.2-1.6,2.9-2.4,4.6-3.1
		c2.2-0.9,4.9,0.7,5.9,3.7c0.9,2.7,1.7,5.4,2.5,8.1c0.3,1,0.5,1.5,1.8,1.2c2.4-0.5,4.5-0.1,6.1,2c0.6,0.7,1.4,1.3,1.9,2.1
		c0.9,1.2,2,1.1,3.2,0.8c5.1-1.1,6.8-0.6,9.5,3c0.7,0.9,1.5,1.4,2.6,1.3c5.2-0.4,9.9,1.8,14.7,3.4c0.9,0.3,1.6,0.4,2.4-0.5
		c1.2-1.4,2.7-0.7,4-0.2c1.5,0.5,3,0.5,4.4,0.1c2.1-0.5,3-2.2,2.4-4.4c-0.6-2.1-0.7-4.2-0.5-6.3c0.1-1.2-0.4-1.9-1.6-2.1
		c-0.6-0.1-1.1-0.3-1.7-0.6c-1.4-0.7-1.8-2.4-0.7-3.5c1.3-1.3,2.8-2.3,4.9-2.2c2.7,0.1,5.5-0.3,8.2,0.1c4.2,0.6,8.6,0.2,12.8,1.7
		c2.5,0.9,4.1,3.1,3.9,5.2c-0.1,1-0.6,1.9-1.2,2.7c-2.2,2.9-1.5,7.4,0.6,10c1.7,2,3.8,3.7,6.1,5c1.4,0.8,2.9,0.7,4.3,0.2
		c1.5-0.5,2.9-1,4.5-0.9c1.4,0.1,2.6-0.5,3.9-0.7c4.5-0.6,8.9-1.7,13.1-3.7c0.2-0.1,0.4-0.2,0.6-0.2c3.7,0.2,7.3-1.3,11.1-0.2
		c2.3,0.7,4.7-0.3,7-0.7c3.4-0.6,6.6-2.1,10.1-2c0.6,0,1.1-0.4,1.5-0.9c0.9-1,2-1.4,3.2-0.6c1.1,0.7,1.4,1.8,0.9,3
		c-0.9,2-0.6,3.9,0.3,5.8c0.8,1.6,1.3,1.9,2.9,1c1.6-0.9,3.1-1.7,4.6-2.7c3.4-2.3,7-3.5,11.1-3.4c2,0,4.1-0.2,6,0.6
		c3.9,1.6,7.3,4,8.8,8.1c0.8,2.2,0,4.6-0.7,6.9c-1.2,3.8-3.2,7.2-5.6,10.3c-2.7,3.5-6.3,6-10.9,7c-2,0.4-3.7,0.6-5.1-1.1
		c-0.7-0.9-1.3-1.8-2-2.7c-0.9-1.2-2.4-1.6-3.7-2.1c-0.7-0.2-1.3,0.1-1.9,0.6c-2,1.8-4.1,3.3-5.7,5.5c-1.7,2.4-2.6,4.7-1.9,7.8
		c0.6,2.7,0.2,5.5-0.1,8.3c-0.4,3.6-0.4,7.2,0,10.9c0.4,3.6,0.3,7.2-0.2,10.8c-0.4,2.7-1,5.4-0.4,8.4c1,4.9,0,9.5-4,13
		c-2.7,2.4-6,3.4-9.3,4.3C215.1,170.7,210.6,169.7,206.9,170.1z M168.7,119.1c-3.5,0.1-7-0.6-10.6-0.7c-4.1-0.1-8.2-0.3-12.3-1.1
		c-2-0.4-3.5-1.5-4.5-3.3c-0.5-0.8-0.7-1.8-0.9-2.7c-0.5-2.5-0.7-5.1,0.4-7.6c0.5-1.1,1-2.1,1.3-3.3c1.4-4.7,4.2-8.8,5.8-13.5
		c0.3-0.9,0.6-1.9-0.1-2.6c-0.7-0.8-1.8-0.6-2.7-0.2c-1.6,0.6-3,1.5-3.8,3c-1.3,2.2-6.1,3.4-8.4,2.6c-3.8-1.3-7.6-2.5-11-4.8
		c-0.7-0.4-1.4-0.7-2.2-0.9c-2.9-0.8-5.7-1.9-8.7-2.5c-4.2-0.8-8.3-0.5-12.4-0.4c-3.5,0.1-6.1,2.5-8.6,4.9c-0.4,0.3-0.5,0.7-0.2,1.2
		c0.7,1.3,1.5,2.4,2.7,3.3c0.8,0.6,1.4,0.6,2.2,0c3.2-2.2,6.3-4.7,10.7-3.5c1.3,0.4,2.6,0.5,3.6,1.5c0.4,0.4,0.9,0.7,1.5,0.9
		c4.3,1.1,8.5,2.1,12.6,3.8c4.2,1.8,6.9,4.8,8.7,8.7c0.6,1.2,0.6,2.4,0,3.6c-0.4,0.9-0.7,1.9-0.9,3c-0.9,5.3-4.1,7.8-9.4,7.7
		c-0.5,0-1.1,0-1.6,0c-1.5,0-2.8-0.5-4.1-1.3c-1.6-1.1-3.5-1.7-5.5-2.2c-0.8-0.2-1,0-0.6,0.9c1.6,3.8,4.3,6.6,7.2,9.4
		c3.4,3.1,7.2,3.2,11.2,1.8c3.1-1.1,5.7-3.1,8.8-4.3c1.4-0.5,2.6-0.6,3.8,0.2c0.8,0.6,1.7,1,2.7,1.1c1.2,0.2,2.4,0.5,3.6,0.8
		c2.9,0.6,5.7,1.7,8.7,2c3.5,0.3,7,0.6,10.5,0.9c2.3,0.2,4.4-0.2,6.6-0.5c2.8-0.3,5.9-0.8,8.2,1.3c3.3,2.9,7.2,4.6,10.8,6.9
		c0.3,0.2,0.6,0.3,1,0.3c3.3,0.4,5.4-2,7.7-3.6c0.3-0.2,0.3-0.6,0.1-0.8c-1.4-1.3-2.4-3.1-4.3-3.9c-2.9-1.2-5.6-2.7-8.1-4.6
		c-2-1.5-3.2-3.4-3.9-5.8c-0.7-2.7-0.9-5.4-1.3-8.1c-0.5-3.1,0.3-5.7,2.8-7.7c2-1.6,4.4-2.4,6.8-2.9c7.6-1.7,14.8,0.3,21.9,2.6
		c2,0.6,3.8,1.7,6,1.5c2.2-0.2,3.7-1.7,3.1-3.4c-1.2-3.2-3.1-6-6.5-7.1c-3.2-1-6.2-2.4-9.3-3.4c-2.8-0.8-5.5-1.8-8.4-0.4
		c-3.1,1.5-6.4,2.6-9.6,4c-4.5,2.1-8.6,1.8-12.5-1.4c-1.9-1.5-3.4-3.3-4.6-5.4c-0.4-0.7-1-1.5-2-1.1c-1.9,0.7-2.6,2.7-1.9,4.7
		c2,5.6,4.9,10.9,6.6,16.7c1.3,4.3,1.5,8.6,0,12.9c-0.6,1.8-2.4,3-4.4,3.1C170.4,119.1,169.6,119.1,168.7,119.1z M171.7,142.6
		c0.8,0.2,2.4-0.1,3.9,0.4c4.6,1.5,8.7,4.1,13.6,4.6c2.8,0.3,5.2,1.7,7.8,2.7c2.3,0.9,4.7,1.3,6.7,2.7c1.5,1.1,3.3,1.6,5,2.3
		c0.6,0.2,1-0.1,1.5-0.3c2.1-1.1,2.7-3.5,4.3-5c0.3-0.3,0.2-0.7,0-1c-0.7-0.9-1.4-1.9-2.5-2.2c-2.4-0.7-4.9-1.4-7.3-2
		c-4.2-1.1-8.4-1.9-12.5-3.2c-4.7-1.5-9.2-3.6-13.8-5.3c-3.1-1.1-6.3-2.2-9.5-2.5c-1.5-0.2-3-0.6-4.5-0.7c-3.9-0.2-7.6,0.4-11.3,1.3
		c-2.3,0.5-4.6,0.7-6.8,1.3c-5.5,1.5-11,2.6-16.7,2.2c-2.2-0.2-4.4-0.5-6.6-1c-1.8-0.4-3.2-1.5-4.9-2c-3.4-1-7.1-1.8-9.3-5.1
		c-0.5-0.7-1-0.6-1.5,0.1c-0.6,0.9-1.3,1.8-2,2.6c-0.8,0.9-0.6,1.6,0.2,2.4c4,3.7,8.2,7,13.5,8.7c2.7,0.9,5.4,1.7,8.2,2
		c4.7,0.5,9.3-0.3,14-0.7c1.8-0.1,3.7-0.3,5.6-0.8c4-1.1,8.1-1.8,12.3-2C162.8,141.8,166.9,142.5,171.7,142.6z M253.9,93.4
		c1,0,2,0.1,3,0c1.5-0.2,3.3-0.6,3.8-2.2c0.4-1.3,0.6-2.8,0.8-4.2c0.4-3.3-1.4-4.4-3.9-5.3c-2.3-0.8-3.5-0.4-4.3,1.9
		c-1.1,2.8-2.4,5.3-5.3,6.7c-1.2,0.6-2.4,0.9-3.6,1.4c-1.1,0.5-1.8,2.6-1,2.7c1.3,0.2,2.5,1,3.8,0.5C249.3,94,251.4,92.8,253.9,93.4
		z"/>
	<path class="st6" d="M24.2,224.1c0-8.4,1-16.6,3.6-24.5c3.5-10.3,9.8-18.4,18.6-24.7c6.4-4.6,13.7-7.5,20.9-10.7
		c2.4-1,4.1-1.1,6.6,0c5.4,2.4,11.2,3.6,17.2,3.8c4.9,0.2,9.8,0.9,14.1,3.5c3.8,2.2,5.8,5.7,7.4,9.6c4.6,11.1,9.3,22.2,13.8,33.4
		c1.3,3.2,2.8,6.3,3.5,9.8c0.3,1.7,0.4,3.5,0.3,5.2c-0.1,1.9-1.1,2.4-2.8,1.6c-1.5-0.8-2.7-0.5-4.1,0.3c-2.7,1.6-4.2,4.3-6.1,6.7
		c-3.9,4.9-8.2,9.5-14,12.3c-4.1,2-8.1,1.8-12.3,0.3c-4-1.4-7.8-3.1-12.1-3.6c-5.4-0.6-10.9-0.8-16.4-0.7c-9.2,0.1-17.2,4-25.5,7.2
		c-2.2,0.8-4.3,1.8-6.1,3.3c-0.7,0.6-0.9,0.1-1.2-0.4c-0.9-1.6-1.4-3.4-1.9-5.1C25.4,242.5,24.2,233.4,24.2,224.1z"/>
	<path class="st6" d="M325.2,244.2c0,2.1,0.3,4.2,0,6.3c-0.2,1.1-0.7,1.4-1.6,0.8c-3.5-2.4-7.5-3.7-11.5-4.8
		c-5.5-1.6-11.2-2.3-16.9-1.9c-0.6,0-1.3,0-1.9,0.3c-1.3,0.6-2.1,0.2-3-0.9c-7.7-9.5-17.4-16.3-28.6-21.1c-6-2.6-12.2-4-18.7-4.7
		c-7.9-0.9-15.7-0.6-23.5,0c-1.3,0.1-2.7,0-4-0.5c-1.4-0.5-1.9-1.5-1.8-2.9c0.1-0.9,0.4-1.8,0.8-2.5c2.6-4.5,4-9.5,5.8-14.3
		c1.9-5.2,3.7-10.5,5.1-15.8c0.4-1.3,1.1-2.3,2.1-3.2c1.9-1.9,4.3-3.1,6.4-4.9c0.9-0.8,2.6-0.7,3.9-0.8c7.9-0.5,15.8-0.9,23.7-1.3
		c4.8-0.3,9.6-0.8,14.4-0.5c6.5,0.4,12.8,1.4,18.6,4.6c1.8,0.9,3,2.4,4.1,4c4.2,5.9,8.2,12.1,12.2,18.2c2.5,3.8,3.8,8.1,5.4,12.2
		c1.4,3.9,2.9,7.7,4.8,11.3c2.2,4.1,3,8.6,3.5,13.1C324.9,238,325.2,241.1,325.2,244.2z"/>
	<path class="st7" d="M157.7,239.9c7.2,0,13.7,0.9,20.3,1.9c3.9,0.6,7.9,1.1,11.7,2c1.9,0.4,4,1.3,5.3,2.8c1.6,1.9,3.6,3.1,5.8,3.9
		c4.5,1.7,8.1,4.8,11.9,7.6c2.4,1.7,5,2.7,7.8,3.5c1.8,0.5,3.4,1.4,4.7,2.8c4,4.1,8.2,7.9,12.7,11.5c4.9,3.8,10.4,6.1,16.3,7.7
		c3.7,1.1,7.5,0.6,11.3,0.2c1.7-0.2,3.5-0.4,5.2-0.4c3.7,0.1,6.6-1.7,9.1-4.2c2.7-2.7,5.1-5.7,7.6-8.6c1.3-1.5,2-3.1,2.1-5.1
		c0.1-2.2,0.8-4.3,1.7-6.3c1.2-2.6,4.1-3.5,7-2.1c0.8,0.4,1.6,0.8,2.4,1.2c1.7,1,2.4,3.1,1.6,5.2c-0.8,2.1-1.7,4.1-3.3,5.8
		c-1.2,1.3-1.7,2.9-2.3,4.5c-2.4,5.4-5.1,10.6-8.7,15.2c-3.7,4.8-7.7,9.4-12.9,13c-3.2,2.2-6.5,4.3-9.5,6.7c-1.8,1.4-4,2.2-6.5,2.3
		c-1.8,0-3.5,0.4-5.3,0.6c-7.1,0.8-14,0-20.9-2.2c-3.4-1.1-6.3-3.1-9.8-4c-3.1-0.7-5.8-2.5-8.8-3.5c-1.1-0.4-2.2-1-3-1.9
		c-1.9-1.8-4.2-2.8-6.5-3.7c-2.8-1.2-5.3-2.9-7.8-4.7c-7.1-5.1-15-9.1-21.7-14.7c-6.1-5.1-13.1-8.6-19.4-13.3
		c-3.3-2.4-6.1-5.4-9.3-8c-2-1.6-4.5-2.5-6.4-4.4c-0.9-0.9-1.8-1.8-3.3-2.1c-1.3-0.3-1.3-2.4,0.1-3.4c2.6-2,5.4-3.5,8.6-4.3
		C149.7,240.2,154,239.5,157.7,239.9z"/>
	<path class="st7" d="M115,311.7c-8.1-0.5-16.1-1.5-24.1-3.1c-3.4-0.7-6.8-0.8-10.1-1.9c-5.5-2-10-5.1-13.3-10
		c-3.7-5.5-6-11.6-7.7-18c-0.5-1.8-1.2-3.6-1.9-5.3c-0.9-2.4-1.6-4.9-1.6-7.5c0-1,0.1-1.9,0.7-2.7c0.2-0.2,0.4-0.5,0.3-0.7
		c-0.6-3.2,1.9-3.7,4-4.5c1.5-0.6,3-1.1,4.5-1.8c0.9-0.4,1.8-0.7,2.7-0.5c1.7,0.2,3.2-0.8,4.8-0.6c3.1,0.3,5,2.2,6.6,4.6
		c0.7,1.1,0,2.5-1.3,2.9c-2.3,0.7-4,2.2-5.5,3.9c-1.7,1.9-0.5,5.9,1.9,6.9c4,1.6,7.5,0.4,10.8-1.7c3.7-2.4,7.3-5,10.9-7.5
		c1.5-1,2.9-2,4.6-2.7c1.6-0.7,2.9-1.7,4.3-2.7c1.4-1.1,2.8-1.4,4.4-0.7c4,1.6,8.1,3,12.1,4.7c3.4,1.5,6.5,3.8,10,5.2
		c9,3.6,16.5,9.7,23.4,16.3c2,1.9,3.5,4.2,4.9,6.5c1.9,3.1,1.3,5.7-1.8,7.6c-2.3,1.4-4.7,2.6-7,3.9c-2.2,1.2-4.4,2.5-6.5,3.8
		c-1.5,1-3.2,1.8-5,1.9c-3.7,0.3-7,1.9-10.6,2.4c-2.6,0.4-5.2,0.9-7.8,1C119.6,311.4,117.4,312,115,311.7z"/>
	<path class="st8" d="M236.4,229.8c7.2,0.2,13.1,1.6,19,4c3.7,1.5,6.8,3.9,10.2,5.9c2,1.3,3.1,3.4,4.4,5.2c2.6,3.4,5.5,6.7,7.6,10.5
		c1.2,2.2,1.6,4.4,0.1,6.6c-0.7,1.1-1.7,1.8-3.1,1.7c-1.4-0.2-2.3-1-2.7-2.4c-0.2-0.7-0.6-1.2-1.1-1.7c-1.4-1.4-2.7-2.8-3.6-4.5
		c-0.5-1-1.3-1.5-2.4-1.9c-2.1-0.6-4.2-1.5-6.5-1.3c-1.9,0.2-2.6,0.7-2.4,2.6c0.1,1.8,0.4,3.5,1.3,5.2c2.2,4.1,4.2,8.3,5.5,12.8
		c0.5,1.9-0.2,3.3-1.7,3.7c-1.5,0.5-2.9-0.3-3.6-2.1c-1.2-3.5-2.6-6.9-4.3-10.1c-2.2-4.1-3.5-8.7-6.8-12.3c-1.2-1.3-1.9-3.2-2.8-4.7
		c-0.8-1.3-1.8-2.4-3-3.3c-0.7-0.5-1-0.4-1.4,0.3c-1.2,2.1-1.6,4.1-0.1,6.4c1.2,1.8,1.5,4,2.3,5.9c1.7,4.2,3.4,8.5,5.5,12.6
		c0.2,0.5,0.5,1,0.7,1.5c0.5,1.3,0.5,2.6-0.7,3.5c-1.2,1-2.4,0.7-3.6,0.1c-1.2-0.7-2.2-1.6-2.6-3c-1.2-4-3.6-7.3-5.6-10.8
		c-2.5-4.6-4.8-9.2-6.6-14.2c-0.3-1-0.8-1.9-1.3-2.8c-1-1.6-3-2.3-4.7-1.7c-0.7,0.2-0.9,0.8-1.2,1.4c-0.5,1.2-1.2,2-2.6,2.1
		c-1.4,0.1-2-0.9-2.9-1.7c-1.5-1.4-2.1-3.7-4.6-4.1c-1.6-0.3-1.7-2.5-0.3-3.7c0.9-0.8,2.1-1.2,3.1-1.3c2.6-0.2,4.8-1.9,7.3-2.2
		c2.8-0.4,5.5-1.5,8.3-1.4C232.2,230.5,234.7,229.4,236.4,229.8z"/>
	<path class="st5" d="M154.8,185.1c0-0.5,0-1.1,0-1.6c0.1-1.4,1.1-2.3,2.5-2.2c5.3,0.6,10.6,0.6,16,0.1c1.1-0.1,2-0.5,2.7-1.4
		c1.6-2,3-2.2,5-0.6c1.8,1.4,3.4,3.1,4.4,5.2c0.3,0.6,0.7,1.1,1,1.6c1.5,2.1,1.5,3.9-0.2,5.8c-0.6,0.7-1.1,1.4-1.4,2.2
		c-0.7,1.8-1.9,3.1-3,4.6c-1.7,2.1-2,4.8-3,7.2c-0.3,0.6-0.5,1.2-0.9,1.7c-0.8,1.1-1.2,2.3-1.5,3.7c-0.6,3.3-2.4,6.1-5.1,8.1
		c-1.5,1.1-3.5,0.6-4.6-1.2c-1.3-2.1-2.4-4.2-3.6-6.4c-1-1.7-1.8-3.5-2.8-5.2c-1.9-3.2-2.6-6.8-3.1-10.5c-0.4-2.9-1.3-5.6-1.9-8.4
		C154.9,186.9,154.8,186,154.8,185.1z"/>
	<path class="st9" d="M126.7,176c3.8,0.5,7.7,0.7,11.3,2.2c1.9,0.8,2.9,2.2,3.3,4.3c0.7,4.3,2.6,8.1,4.3,12c1,2.3,2.1,4.6,3.2,6.9
		c1.1,2.3,2.4,4.5,4.1,6.5c2.2,2.6,2.8,5.6,1.2,8.9c-0.6,1.2-1,2.4-1.6,3.5c-0.8,1.7-1.8,2.2-3.6,1.5c-4-1.6-7-4.4-9.6-7.8
		c-4-5.1-6.7-10.8-8.6-17c-1.5-5.1-3.1-10.2-5.2-15.2c-0.4-0.9-0.9-1.8-1.4-2.6c-1.2-2.2-0.7-3.2,1.8-3.2
		C126.2,176,126.5,176,126.7,176z"/>
	<path class="st9" d="M210.6,188.4c-0.5,5.2-1.6,10.4-2.7,15.5c-0.4,2.1-2.1,3-4,3.6c-2.4,0.7-2.6,1.1-2,3.5
		c0.5,2.1,0.3,2.8-1.6,3.8c-2.4,1.4-3.2,3.6-3.5,6.1c-0.2,1.7-0.2,3.5-0.4,5.2c-0.2,2.9-1.7,4-4.4,3.1c-3.2-1.1-5.7-3.1-6.5-6.5
		c-0.5-1.9,0.1-3.7,0.9-5.3c5.2-10.2,9.3-20.9,13.2-31.7c1.4-3.8,3.6-4,7.1-3.6c2.3,0.2,3.8,2.4,3.9,5.5
		C210.6,187.8,210.6,188.1,210.6,188.4z"/>
	<path class="st9" d="M323.5,269.6c0.1,3.3-0.5,6.6-0.8,10c-0.1,1.2-0.6,2.2-1.6,3c-3.1,2.6-6.1,5.2-9.5,7.4c-1.7,1-3.4,2.1-5.5,2.1
		c-1.7,0-2.2-0.8-1.7-2.4c0.2-0.7,0.6-1.3,1.2-1.9c5.6-6.1,7.3-13.3,5.6-21.3c-0.2-0.8-0.1-1.5,0.4-2.1c1.9-2.2,4.1-3.9,6.8-4.8
		c1.5-0.5,2.6,0.1,3.5,1.2c1.5,1.9,1.5,4.1,1.5,6.4C323.5,268,323.5,268.8,323.5,269.6z"/>
	<path class="st9" d="M44,271.8c0,4.6,0,9.2,1.9,13.5c0.7,1.6,1.7,3,2.4,4.6c0.5,1,1.2,2.1,0.3,3.1c-0.9,1-2,0.2-3-0.3
		c-5.1-2.4-7.9-6.8-9.7-11.9c-1-2.8-1.5-5.8-1.7-8.8c-0.1-0.9,0.1-1.8,0.7-2.5c1.6-2.2,3.2-4.3,5.2-6.2c1.7-1.6,2.9-1.3,3.7,0.9
		c0.2,0.7,0.3,1.4,0.3,2.1c0,0.9,0,1.9-0.1,2.8C44,270,44,270.9,44,271.8z"/>
	<path class="st9" d="M177.1,14.4c0.4,0.1,0.9,0.2,1.3,0.4c2.3,1.2,4.6,2.3,6.9,3.6c0.4,0.2,0.7,0.5,1,0.9c0.7,0.8,1.5,1.7,0.8,2.7
		c-0.7,1.1-1.8,2.1-3.2,1.6c-1.5-0.5-2.9-0.5-4.3,0.2c-0.8,0.4-1.7,0.1-2.4-0.3c-1.7-0.9-3-2.3-4.2-3.8c-0.8-1-0.6-2,0.1-3
		C173.9,15.2,175.6,14.9,177.1,14.4z"/>
	<path class="st9" d="M226.5,23.1c-0.5,4.5-2.2,8.4-6.1,11c-1.1,0.8-2.3,0.4-3.2-0.2c-0.9-0.6-1-1.7-0.6-2.8
		c1.1-2.7,2.1-5.4,3.1-8.2c0.3-0.9,0.9-1.6,1.6-2.3c0.9-0.8,2-1.3,3.1-0.7C225.5,20.6,226.6,21.5,226.5,23.1z"/>
	<path class="st10" d="M103.8,15.9c-0.1,1.8-0.2,3.5-1.2,4.9c-0.9,1.4-2,1.4-2.9,0c-1.6-2.2-1.6-7.4,0-9.7c0.9-1.3,1.9-1.3,2.8,0
		C103.6,12.6,103.7,14.3,103.8,15.9z"/>
	<path class="st10" d="M128.8,24.2c-0.3-0.1-0.8-0.1-1.2-0.3c-0.8-0.3-1.4-0.8-1.4-1.7c0-0.9,0.6-1.4,1.4-1.8c0.5-0.2,1-0.3,1.6-0.3
		c1.5,0,2.9,1,2.8,2.1C131.9,23.3,130.5,24.2,128.8,24.2z"/>
	<path class="st10" d="M210.4,15.4c1.2,0,2.3,1.1,2.3,2.2c0,1-1,1.9-2.2,1.9c-1.3,0-2.5-1-2.4-2.3C208.1,16.2,209.1,15.4,210.4,15.4
		z"/>
	<path class="st10" d="M156.9,20.8c1.1,0,2,1,2,2c0,1.1-1,2.1-2.2,2c-1.1-0.1-1.9-1-1.9-2.1C154.8,21.6,155.8,20.7,156.9,20.8z"/>
	<path class="st10" d="M91.4,24.3c-0.1,0.8-0.7,1.1-1.4,1.1c-0.7,0-1.3-0.3-1.3-1.1c0-0.9,0.7-1.2,1.4-1.1
		C90.8,23.2,91.4,23.5,91.4,24.3z"/>
	<path class="st11" d="M168.7,119.1c0.8,0,1.7,0,2.5,0c1.9,0,3.7-1.3,4.4-3.1c1.5-4.3,1.3-8.5,0-12.9c-1.7-5.8-4.6-11.1-6.6-16.7
		c-0.7-2,0-4,1.9-4.7c1-0.4,1.6,0.4,2,1.1c1.3,2,2.7,3.8,4.6,5.4c3.9,3.1,8,3.4,12.5,1.4c3.1-1.5,6.5-2.5,9.6-4
		c2.9-1.4,5.6-0.5,8.4,0.4c3.2,1,6.2,2.4,9.3,3.4c3.4,1.1,5.3,3.9,6.5,7.1c0.6,1.7-0.9,3.2-3.1,3.4c-2.2,0.2-4-0.8-6-1.5
		c-7.1-2.3-14.3-4.3-21.9-2.6c-2.4,0.5-4.8,1.3-6.8,2.9c-2.5,2-3.3,4.6-2.8,7.7c0.5,2.7,0.6,5.4,1.3,8.1c0.6,2.4,1.9,4.3,3.9,5.8
		c2.5,1.9,5.2,3.4,8.1,4.6c1.9,0.8,2.9,2.5,4.3,3.9c0.2,0.2,0.2,0.6-0.1,0.8c-2.4,1.6-4.4,4-7.7,3.6c-0.3,0-0.7-0.1-1-0.3
		c-3.6-2.3-7.5-4-10.8-6.9c-2.3-2-5.3-1.6-8.2-1.3c-2.2,0.2-4.4,0.7-6.6,0.5c-3.5-0.3-7-0.5-10.5-0.9c-3-0.3-5.8-1.3-8.7-2
		c-1.2-0.3-2.4-0.6-3.6-0.8c-1-0.2-1.9-0.5-2.7-1.1c-1.2-0.9-2.4-0.8-3.8-0.2c-3.1,1.2-5.7,3.2-8.8,4.3c-4,1.5-7.9,1.4-11.2-1.8
		c-2.9-2.7-5.6-5.6-7.2-9.4c-0.4-0.8-0.1-1,0.6-0.9c1.9,0.5,3.8,1.1,5.5,2.2c1.3,0.9,2.6,1.4,4.1,1.3c0.5,0,1.1,0,1.6,0
		c5.3,0.1,8.4-2.4,9.4-7.7c0.2-1,0.4-2,0.9-3c0.6-1.2,0.5-2.4,0-3.6c-1.8-4-4.5-7-8.7-8.7c-4.1-1.7-8.4-2.7-12.6-3.8
		c-0.6-0.2-1.1-0.5-1.5-0.9c-1-1-2.4-1.1-3.6-1.5c-4.4-1.3-7.5,1.3-10.7,3.5c-0.9,0.6-1.5,0.6-2.2,0c-1.2-0.9-2-2.1-2.7-3.3
		c-0.3-0.5-0.2-0.8,0.2-1.2c2.5-2.3,5.2-4.8,8.6-4.9c4.1-0.1,8.3-0.4,12.4,0.4c3,0.6,5.8,1.7,8.7,2.5c0.8,0.2,1.5,0.5,2.2,0.9
		c3.4,2.2,7.3,3.4,11,4.8c2.3,0.8,7-0.4,8.4-2.6c0.9-1.4,2.3-2.3,3.8-3c0.9-0.3,2-0.5,2.7,0.2c0.7,0.8,0.4,1.7,0.1,2.6
		c-1.6,4.6-4.5,8.7-5.8,13.5c-0.3,1.2-0.8,2.2-1.3,3.3c-1.1,2.4-0.9,5-0.4,7.6c0.2,0.9,0.4,1.8,0.9,2.7c1,1.8,2.5,2.9,4.5,3.3
		c4,0.8,8.2,1,12.3,1.1C161.7,118.5,165.2,119.2,168.7,119.1z"/>
	<path class="st11" d="M171.7,142.6c-4.8-0.1-8.9-0.8-13-0.6c-4.2,0.2-8.3,0.9-12.3,2c-1.8,0.5-3.7,0.7-5.6,0.8
		c-4.6,0.4-9.3,1.2-14,0.7c-2.8-0.3-5.5-1.1-8.2-2c-5.3-1.7-9.5-5-13.5-8.7c-0.8-0.8-1-1.5-0.2-2.4c0.7-0.8,1.4-1.7,2-2.6
		c0.5-0.7,1-0.8,1.5-0.1c2.2,3.3,5.9,4,9.3,5.1c1.7,0.5,3.2,1.6,4.9,2c2.2,0.5,4.4,0.9,6.6,1c5.7,0.4,11.2-0.7,16.7-2.2
		c2.2-0.6,4.6-0.7,6.8-1.3c3.7-0.9,7.5-1.5,11.3-1.3c1.6,0.1,3,0.5,4.5,0.7c3.3,0.4,6.4,1.4,9.5,2.5c4.6,1.7,9.1,3.8,13.8,5.3
		c4.1,1.3,8.3,2.2,12.5,3.2c2.4,0.6,4.9,1.3,7.3,2c1.2,0.3,1.8,1.3,2.5,2.2c0.2,0.3,0.3,0.7,0,1c-1.6,1.6-2.2,3.9-4.3,5
		c-0.5,0.3-0.9,0.6-1.5,0.3c-1.7-0.7-3.5-1.2-5-2.3c-2-1.5-4.5-1.9-6.7-2.7c-2.6-1-5-2.4-7.8-2.7c-4.9-0.5-9-3.2-13.6-4.6
		C174,142.5,172.5,142.8,171.7,142.6z"/>
	<path class="st0" d="M253.9,93.4c-2.5-0.6-4.5,0.6-6.7,1.5c-1.4,0.5-2.6-0.3-3.8-0.5c-0.8-0.1-0.1-2.3,1-2.7
		c1.2-0.5,2.4-0.8,3.6-1.4c2.9-1.4,4.2-3.9,5.3-6.7c0.9-2.3,2-2.7,4.3-1.9c2.4,0.9,4.2,2,3.9,5.3c-0.2,1.4-0.4,2.9-0.8,4.2
		c-0.4,1.6-2.3,1.9-3.8,2.2C255.9,93.5,254.9,93.4,253.9,93.4z"/>
</g>
</svg>
