<?xml version="1.0" encoding="utf-8"?>
<!-- Generator: Adobe Illustrator 19.2.1, SVG Export Plug-In . SVG Version: 6.00 Build 0)  -->
<svg version="1.1" id="Capa_1" xmlns="http://www.w3.org/2000/svg" xmlns:xlink="http://www.w3.org/1999/xlink" x="0px" y="0px"
	 viewBox="0 0 17.6 17.8" style="enable-background:new 0 0 17.6 17.8;" xml:space="preserve">
<style type="text/css">
	.st0{fill:#A0A09F;}
</style>
<g>
	<path class="st0" d="M0,16.9c0-1,0-1.9,0-2.9C0,13,0,12,0,11C0,8,0.4,5.6,1.3,3.8C2.2,2,3.7,1.1,5.9,1.1l1.1,2.3
		C5.8,3.5,5,4.1,4.5,5.2c-0.5,1.1-0.7,2.7-0.7,5H7v6.7H0z M10.5,16.9c0-1,0-1.9,0-2.9c0-1,0-1.9,0-2.9c0-3.1,0.4-5.5,1.3-7.2
		c0.9-1.8,2.4-2.7,4.6-2.8l1.1,2.3c-1.2,0.1-2.1,0.7-2.5,1.8c-0.5,1.1-0.7,2.7-0.7,5h3.2v6.7H10.5z"/>
</g>
</svg>
