<?xml version="1.0" encoding="utf-8"?>
<!-- Generator: Adobe Illustrator 19.2.1, SVG Export Plug-In . SVG Version: 6.00 Build 0)  -->
<svg version="1.1" id="Capa_1" xmlns="http://www.w3.org/2000/svg" xmlns:xlink="http://www.w3.org/1999/xlink" x="0px" y="0px"
	 viewBox="0 0 461 371" style="enable-background:new 0 0 461 371;" xml:space="preserve">
<style type="text/css">
	.st0{fill:#FEFEFE;}
	.st1{fill:#302F42;}
	.st2{fill:#6C63FE;}
	.st3{fill:#E5E5E5;}
	.st4{fill:#313043;}
	.st5{fill:#45435B;}
	.st6{fill:#EFEFEF;}
	.st7{fill:#D1D1D1;}
	.st8{fill:#FBB4B4;}
	.st9{fill:#FDFDFD;}
	.st10{fill:#6C63FD;}
	.st11{fill:#736BF4;}
	.st12{fill:#574FCD;}
	.st13{fill:#6B62FC;}
</style>
<g>
	<path class="st0" d="M95.7,336.9c-11.7,0-23.4,0-35.1,0c0-39.9,0-79.9,0-119.8c0-0.9-0.1-1.8,0.1-2.7c0.5-3.7,1.1-4.2,4.9-4.2
		c21.8,0,43.7,0,65.5,0c1,0,2.2,0.4,3.1-0.6c9.7,4.8,19.5,9.4,30,12.3c2.2,0.6,2.3,1.4,1.7,3.4c-6,17.8-11.9,35.6-17.9,53.3
		c-0.7,2-0.5,3.1,1.6,3.5c-0.5,2.4-2.4,4.3-2.8,6.8c-1-0.1-1.9-1.1-2.8,0.4c-2.8,4.9-5.8,9.7-8.7,14.5c-0.4,0.6-0.5,0.9,0.3,1.5
		c3.1,2.2,4.1,2.1,6.5-0.8c0.2-0.2,0.4-0.7,1.1-0.3c0,0.5,0.1,1.1,0,1.7c-0.5,2.4,0.6,3.6,2.8,4.5c3.5,1.5,6.9,3.3,10.3,5
		c1.7,0.8,3.4,1,4.7-0.5c1.3-1.4,1-3,0.1-4.6c-1.8-3.3-3.5-6.6-5.5-9.7c-1.2-1.9-1.4-3.5-0.1-5.2c1.3-1.7,0.8-2.7-1.1-3.4
		c1.3-2.2,2.7-4.4,4-6.6c2.5,1.4,3.5,0.3,4.6-2.2c8.3-19,16.8-38,25.2-56.9c0.3-0.7,0.4-1.7,1.3-2.2c4.3,8.7,8.5,17.4,12.7,26.1
		c1.9,3.9,1.9,3.9,5.4,1.6c0.7,3.5,2.2,6.6,4.1,9.5c-1,0.8-1.4,1.6-0.6,2.9c2.2,4,4.2,8.1,6.3,12.1c1.9,3.7,1.8,3.5,5.2,1.5
		c2.6-1.5,0-3,0.3-4.4c0.2-0.2,0.4-0.5,0.5-0.7c0.9,0.5,1.8,0.9,2.6,1.5c0.9,0.6,1.5,0.6,2.4,0c3.8-2.4,7.6-4.7,11.4-7.1
		c1.6-1,2.4-2.4,1.8-4.2c-0.5-1.7-1.8-2.4-3.6-2.4c-3.6-0.1-7.1-0.5-10.7-0.5c-2.6,0-4.4-0.6-5.4-3.1c-0.5-1.2-1.3-1.9-2.7-1.2
		c-1.7-3.7-2.9-7.5-3.4-11.6c2-1.1,2.3-2.4,1.5-4.7c-3.5-9.8-6.8-19.6-10.2-29.4c61.4,0,122.9,0,184.3,0c0.3,0,0.6,0,0.8,0
		c2-0.2,2.8,1.1,3,2.8c0.1,1,0,2,0,3c0,40.3,0,80.6,0,121c-13.2,0-26.3,0-39.5,0c0.2-5.9-4-9.5-6.7-14.5c-1.9,5.3-1.9,5.3-5.9,2.2
		c-0.1-0.1-0.1-0.1-0.2-0.2c-3.3-2.4-6.6-4.7-10.5-7.6c1.1,7.4,2,13.9,4.6,20.1c-8.1,0-16.2,0.8-24.3,0.5c-3.8-0.1-7.7,0-11.5,0
		c-0.6,0-1.5-0.4-1.7,0.8c0.9,0.7,2,0.4,2.9,0.4c48.7,0,97.4,0,146,0c0.6,0,1.3,0,1.9,0c0.6,0,1.2-0.1,1.1-0.8
		c0-0.7-0.7-0.7-1.3-0.7c-0.6,0-1.3,0-1.9,0c-15.3,0-30.7,0-46,0c-0.2-13.4-0.2-26.8-0.4-40.2c-0.4-29-0.1-57.9-0.2-86.9
		c0-3.7-0.4-7.4-1.7-11c-1.4-3.9-3-5-7.1-5c-17.3,0-34.6,0-51.8,0c-2.6,0-5.1,0.1-7.7,0.2c-7.4,0-14.8,0-22.2-0.1
		c-4.3,0-3.7,0.6-3.7-3.6c0-8.7-0.1-17.4-0.1-26c1-0.6,2.1-0.4,3.2-0.4c17.5,0,35.1,0,52.6,0c4.5,0,6.2-1.7,6.2-6.1
		c0-33.5,0-66.9,0-100.4c0-4.4-1.7-6.2-6.2-6.2c-49.5-0.1-99.1-0.1-148.6-0.2c-3.2,0-5.8,0.7-7.3,3.8c-0.8,0.4-1.7,0.7-2.4,1.2
		c-4.1,2.5-8.2,5.1-12.3,7.7c0-2.1-0.9-1.6-2.1-0.9c-9,5.4-18,10.7-27,16.1c-1,0.6-2,1.2-3.3,1.2c-9.1,0.4-18.2,0.9-27.3,1.4
		c-1.1,0.1-1.6-0.2-1.9-1.4c-0.5-1.7-0.4-3.6-1.6-5.2c-0.7-3.5-0.8-7.1-0.9-10.7c4.9-1.5,9.5-7.2,9.6-12.5c0.1-2.6,0.7-5.3-1.2-7.6
		c0.7-0.9,2.4-0.6,2.6-2.1c0.9-5.8-2.9-10.6-8.8-10.8c-2.1-0.1-3.8-0.6-5.6-1.7c-3.3-1.9-6.9-3.3-10.7-2.7
		c-4.5,0.7-8.5,0.7-11.7-3.1c-0.7-0.8-2-1-2.5-2.3c-1.9-5.2-6-8.1-11.2-8.9c-10.9-1.7-21.5,0.5-31.7,3.9c-4.1,1.4-5.7,4.8-5.4,9.2
		c0.2,2.1,0.6,4.2,0.8,6.2c0.9,8-1.3,11.2-9,13.4c-2.5,0.7-5.2,1.2-7.5,2.4c-6.1,3.1-6.7,8.9-1.3,13.1c3.9,3,8.3,5.3,12.7,7.6
		c1.2,0.6,1.9,0.5,2.9-0.4c3-2.5,5.7-5.4,7.9-8.7c0.3-0.5,0.4-1.5,1.6-1.1c0,0.6,0,1.3-0.1,1.9c-0.5,2.1-1.2,4.2-1.7,6.3
		c-0.5,1.9-2.8,3.9-1.7,5.3c1.1,1.3,3.8,1.5,5.8,1.9c11,2.4,18.4-1.5,23-11.8c0.4-0.9,0.8-1.9,1.1-2.8c1.6-5.2,3.1-10.5,4.8-15.7
		c1.3-3.9,3.4-7.3,6.5-10c0.7-0.7,1.4-1,2.3-0.1c0.8,0.8,1,1.3,0.3,2.2c-2.5,3.4-3.1,7.5-4.3,11.4c-0.7,2.4-0.3,4.8,0.9,6.9
		c4.7,8.2,11.6,13.2,21.2,14c1.5,0.1,3.7-0.8,4.3-0.1c1.1,1.3,1.2,3.3,1.7,5.1c-3-0.3-6-0.5-9-1c-2-0.3-3.1,0.2-3.6,2.2
		c-0.4,1.4-0.5,3-2.1,3.6c-4.9,1.9-6.9,6-8.2,10.6c-0.6,2-0.3,4.2-1,6.2c-3.2,8.7-4.9,17.7-7.2,26.7c-1.9,7.5-1.7,14.4,2.9,21.1
		c3.7,5.5,6.9,11.4,10.3,17.1c-3.6,5.8-8.8,10.3-12.1,16.4c-3.1,5.8-3.9,11.4-0.5,17.3c-0.8,1-1.9,0.6-2.8,0.6c-9.3,0-18.6,0.1-28,0
		c-3,0-4.8,1.2-6,3.8c-1.4,3.2-2.2,6.6-2.2,10.1c0,42,0,84.1,0,126.1c0,1.1-0.1,2.2,0.6,3.2c-15.8-0.1-31.6,0.8-47.4,0.8
		c0.7,1.1,1.6,0.8,2.4,0.8c49,0,98,0,147,0c0.9,0,2.5,0.6,2.5-0.8c0-1.3-1.6-0.8-2.5-0.8c-6.7-0.1-13.3,0-20,0c-7.6,0-15.2,0-22.8,0
		c0.4-5.9-3.9-9.6-6.6-14.6c-1.4,5.4-1.4,5.4-5.6,2.5c-0.4-0.3-0.8-0.7-1.3-1c-3.2-1.9-5.9-4.7-9.8-6.6
		C92.2,324.2,93.4,330.7,95.7,336.9z"/>
	<path class="st1" d="M93.5,193.1c-3.4-5.9-2.5-11.5,0.5-17.3c3.2-6.1,8.5-10.6,12.1-16.4c2.1,2.2,3.4,4.8,5,7.3
		c2.6,6,5,11.9,7.7,17.8c0.7,1.6,0.9,2.8-0.1,4.5c-1.8,3.1-0.7,7.2,2.2,9.3c2.7,2.1,6.8,2,9.4-0.1c2.8-2.3,3.6-6.3,1.9-9.4
		c-3.4-6.3-5.5-13.1-8.1-19.7c1.5,0.2,1.9-0.3,1.3-1.8c-1.1-3-2-6.1-3-9.2c7.3,0.1,14.7,0.2,22,0.3c1.8-0.1,2.5,0.4,1.8,2.5
		c-1.2,3.2-1.9,6.5-2.9,9.7c-0.9,3.2-0.9,3.2,2.3,2.9c1.1-0.1,2.2-0.2,3.3-0.4c11-1.4,21.9-3,32.9-4.1c7.3-0.8,13.6,3.9,15,11.1
		c1,4.8,2.8,9.2,4.4,13.8c1.9,5.4,3.9,10.9,5.8,16.3c3.4,9.8,6.7,19.6,10.2,29.4c0.8,2.3,0.5,3.6-1.5,4.7c-2.8,2.5-5.5,5.1-8.3,7.6
		c-3.5,2.3-3.5,2.3-5.4-1.6c-4.2-8.7-8.5-17.3-12.7-26.1c-0.9,0.5-1,1.5-1.3,2.2c-8.4,18.9-16.9,37.9-25.2,56.9
		c-1.1,2.5-2,3.5-4.6,2.2c-2.9-1.1-5.8-2.2-8.8-3.3c-2.1-0.5-2.3-1.6-1.6-3.5c6-17.8,11.9-35.6,17.9-53.3c0.7-2,0.5-2.8-1.7-3.4
		c-10.5-2.9-20.3-7.5-30-12.3c-3.7-2.3-7.4-4.6-11.1-6.8c-0.7-0.4-1.7-0.6-2.6-0.7c-3.3-0.4-6.7-0.6-10-1.3
		C104.1,199.6,97.6,199.1,93.5,193.1z"/>
	<path class="st2" d="M111.2,166.7c-1.6-2.5-3-5.1-5-7.3c-3.4-5.7-6.5-11.6-10.3-17.1c-4.5-6.7-4.8-13.5-2.9-21.1
		c2.3-8.9,4-18,7.2-26.7c0.7-1.9,0.5-4.2,1-6.2c1.3-4.6,3.4-8.7,8.2-10.6c1.6-0.6,1.7-2.3,2.1-3.6c0.6-2,1.6-2.5,3.6-2.2
		c3,0.5,6,0.7,9,1c2,5.2,3.3,10.7,6.4,16.2c-0.2-5.2-1.1-9.7-0.9-14.2c1.2,1.5,1.1,3.4,1.6,5.2c0.3,1.1,0.7,1.4,1.9,1.4
		c9.1-0.5,18.2-1,27.3-1.4c1.3-0.1,2.2-0.6,3.3-1.2c9-5.4,18-10.7,27-16.1c1.2-0.7,2.1-1.2,2.1,0.9c0,4.4,0,8.8,0.1,13.2
		c-2.1,2.1-4.2,4.3-6.4,6.4c-6.2,6.1-12.5,12.1-19.4,17.3c-2.7,2.1-5.6,3.2-9.1,3c-3.5-0.2-7,0-10.8,0c3,6.7,4.6,13.3,3.7,20.1
		c-1,7.4-3.2,14.6-6.5,21.3c-7.3,2.8-14.6,5.6-21.9,8.3c-1.2,0.4-1.7,1-1.1,2.2c0.4,0.8,0.7,1.6,1.1,2.5c1,3.1,1.9,6.2,3,9.2
		c0.6,1.5,0.2,2-1.3,1.8C119.9,168.3,115.5,167.5,111.2,166.7z"/>
	<path class="st1" d="M129.7,75.1c-0.2,4.5,0.7,9,0.9,14.2c-3.1-5.5-4.4-11-6.4-16.2c-0.5-1.7-0.6-3.8-1.7-5.1
		c-0.6-0.7-2.8,0.3-4.3,0.1c-9.6-0.8-16.5-5.8-21.2-14c-1.2-2.1-1.7-4.5-0.9-6.9c1.2-3.9,1.8-8,4.3-11.4c0.7-0.9,0.6-1.4-0.3-2.2
		c-0.9-0.9-1.6-0.5-2.3,0.1c-3.1,2.7-5.2,6.1-6.5,10c-1.7,5.2-3.2,10.5-4.8,15.7c-0.3,1-0.7,1.9-1.1,2.8c-4.6,10.3-12,14.1-23,11.8
		c-2-0.4-4.7-0.6-5.8-1.9c-1.1-1.4,1.2-3.4,1.7-5.3c0.5-2.1,1.2-4.2,1.7-6.3c0.2-0.6,0.1-1.2,0.1-1.9c-1.2-0.4-1.3,0.6-1.6,1.1
		c-2.2,3.3-4.9,6.1-7.9,8.7c-1,0.8-1.8,0.9-2.9,0.4c-4.4-2.2-8.8-4.5-12.7-7.6c-5.4-4.2-4.8-10,1.3-13.1c2.4-1.2,5-1.7,7.5-2.4
		c7.8-2.2,9.9-5.4,9-13.4c-0.2-2.1-0.6-4.2-0.8-6.2c-0.3-4.4,1.3-7.8,5.4-9.2c10.3-3.4,20.9-5.6,31.7-3.9c5.2,0.8,9.3,3.7,11.2,8.9
		c0.5,1.4,1.8,1.5,2.5,2.3c3.2,3.8,7.2,3.8,11.7,3.1c3.8-0.6,7.4,0.8,10.7,2.7c1.8,1.1,3.5,1.6,5.6,1.7c5.9,0.2,9.7,5,8.8,10.8
		c-0.2,1.5-2,1.1-2.6,2.1c-3,1.8-3-1.2-4.1-3c0,4.1-1.4,7.5-2.4,11c-1.1,3.9-2.3,7.8-1.9,12C129,68,129,71.5,129.7,75.1z"/>
	<path class="st3" d="M207.1,210.2c-1.9-5.4-3.9-10.9-5.8-16.3c15,0,30,0,44.9,0c-1.9,1.5-1.6,3.8-2.1,5.7c-0.9,3.8-0.6,4.1,3.2,4.1
		c28.3,0,56.6,0,84.9,0c0.7,0,1.5,0,2.2-0.1c1-0.1,1.6-0.9,1.4-1.7c-0.7-2.7-0.4-5.7-2.3-8c2.6-0.1,5.1-0.2,7.7-0.2
		c17.3,0,34.6,0,51.8,0c4.1,0,5.7,1.1,7.1,5c1.2,3.6,1.7,7.3,1.7,11c0.1,29-0.3,58,0.2,86.9c0.2,13.4,0.2,26.8,0.4,40.2
		c-2.4,0-4.7,0-7.1,0c0-40.3,0-80.6,0-121c0-1,0.1-2,0-3c-0.2-1.7-0.9-3-3-2.8c-0.3,0-0.5,0-0.8,0
		C329.9,210.2,268.5,210.2,207.1,210.2z"/>
	<path class="st4" d="M333.5,193.9c1.9,2.3,1.6,5.3,2.3,8c0.2,0.8-0.4,1.6-1.4,1.7c-0.7,0.1-1.5,0.1-2.2,0.1c-28.3,0-56.6,0-84.9,0
		c-3.8,0-4.2-0.4-3.2-4.1c0.5-2,0.2-4.3,2.1-5.7c6.5,0,13-0.1,19.4,0.1c2.3,0.1,2.7-0.7,2.7-2.8c-0.1-8.9,0-17.9,0.1-26.8
		c0.5-0.8,1.4-0.8,2.2-0.8c4.5,0,9,0,13.5,0.1c-0.4,2.6-0.7,5.1,1.9,6.8c1.4,0.9,3,0.8,4.4-0.2c2.4-1.7,2.1-4.2,1.6-6.6
		c4.5,0,8.9-0.1,13.4-0.1c0.8,0,1.7-0.2,2.2,0.7c0,8.7,0,17.4,0.1,26c0,4.1-0.6,3.5,3.7,3.6C318.7,193.9,326.1,193.9,333.5,193.9z
		 M284.4,202.5C284.4,202.5,284.4,202.5,284.4,202.5c3.2,0,6.4,0,9.6,0c0.6,0,1.2-0.1,1.2-0.8c0-0.7-0.6-0.8-1.2-0.8
		c-6.3,0-12.6,0-18.9,0c-0.6,0-1.4,0.2-1.3,1c0.1,0.9,1,0.6,1.6,0.6C278.4,202.5,281.4,202.5,284.4,202.5z"/>
	<path class="st5" d="M284.1,163.6c-4.5,0-9-0.1-13.5-0.1c-0.8,0-1.6-0.1-2.2,0.8c-1-0.7-2.1-0.5-3.2-0.5c-17,0-34,0-51,0
		c-5,0-6.6-1.6-6.6-6.5c0-25.2,0-50.5,0-75.7c0-4.8-0.1-9.7-0.1-14.5c0-4.1,0-8.2,0.1-12.3c1.5-3.1,4.1-3.8,7.3-3.8
		c49.5,0.1,99.1,0.1,148.6,0.2c4.4,0,6.2,1.7,6.2,6.2c0,33.5,0,66.9,0,100.4c0,4.4-1.7,6.1-6.2,6.1c-17.5,0-35.1,0-52.6,0
		c-1.1,0-2.2-0.2-3.2,0.4c-0.6-0.8-1.4-0.7-2.2-0.7c-4.5,0-8.9,0-13.4,0.1C289.3,163.6,286.7,163.6,284.1,163.6z M366.1,118
		c0-0.6,0-1.1,0-1.7c0-9.1,0-18.3,0-27.4c0-0.4,0-0.8,0-1.1c0-10,0.1-20,0.1-30c0-0.5,0-1.1-0.5-1.5c-0.3-1.3-1.2-1.5-2.3-1.5
		c-12.7,0-25.3,0.1-38,0.1c-0.4,0-0.7-0.1-1.1-0.1c-36.5,0-73.1,0-109.6,0c-2.9,0-3.6,0.8-3.6,4.2c0,26.4,0,52.8,0,79.2
		c-0.5,6.3-0.2,12.7-0.2,19.1c0,2,1.3,3,3.5,3c5-0.1,10-0.1,15-0.1c26.9,0,53.9,0,80.8,0c8.2,0,16.5,0.1,24.7,0.1
		c3.2-0.3,6.5,0.6,9.8-0.5c5.9,0.8,11.9,0.3,17.8,0.4c1.3,0,2.6,0.1,3.1-1.5c0.5-0.4,0.5-0.9,0.5-1.5c0-5.4-0.1-10.8-0.1-16.2
		c0-0.4,0-0.8,0-1.1C366.1,132.6,366.1,125.3,366.1,118z"/>
	<path class="st3" d="M93.5,193.1c4.1,6,10.6,6.5,16.8,7.7c3.3,0.6,6.7,0.8,10,1.3c0.9,0.1,1.8,0.3,2.6,0.7
		c3.7,2.2,7.4,4.5,11.1,6.8c-0.9,1-2,0.6-3.1,0.6c-21.8,0-43.7,0-65.5,0c-3.8,0-4.4,0.5-4.9,4.2c-0.1,0.9-0.1,1.8-0.1,2.7
		c0,39.9,0,79.9,0,119.8c-1.8,0-3.6,0-5.5,0c-0.6-1-0.6-2.1-0.6-3.2c0-42,0-84.1,0-126.1c0-3.5,0.8-6.9,2.2-10.1
		c1.1-2.6,3-3.9,6-3.8c9.3,0.1,18.6,0.1,28,0C91.7,193.7,92.8,194.1,93.5,193.1z"/>
	<path class="st4" d="M222.8,273.4c-0.2,1.5,2.3,2.9-0.3,4.4c-3.5,2.1-3.4,2.2-5.2-1.5c-2.1-4.1-4.1-8.2-6.3-12.1
		c-0.7-1.3-0.4-2.1,0.6-2.9c2.7-1.6,5.5-3.1,7.5-5.5c1.4-0.7,2.2,0,2.7,1.2c1,2.5,2.8,3.1,5.4,3.1c3.6-0.1,7.1,0.3,10.7,0.5
		c1.8,0.1,3,0.8,3.6,2.4c0.6,1.8-0.2,3.2-1.8,4.2c-3.8,2.4-7.6,4.7-11.4,7.1c-0.9,0.6-1.6,0.6-2.4,0c-0.8-0.6-1.7-1-2.6-1.5
		c-0.3-0.1-0.5-0.3-0.8-0.4C222.3,272.8,222.5,273.1,222.8,273.4z"/>
	<path class="st4" d="M154.2,292.1c1.9,0.6,2.3,1.7,1.1,3.4c-1.3,1.7-1.1,3.3,0.1,5.2c2,3.1,3.7,6.5,5.5,9.7
		c0.9,1.6,1.1,3.1-0.1,4.6c-1.4,1.5-3,1.4-4.7,0.5c-3.4-1.7-6.8-3.5-10.3-5c-2.2-0.9-3.2-2.1-2.8-4.5c0.1-0.6,0-1.2,0-1.7
		c-0.7-0.3-0.8,0.1-1.1,0.3c-2.3,2.9-3.4,3-6.5,0.8c-0.8-0.5-0.6-0.9-0.3-1.5c2.9-4.8,5.8-9.7,8.7-14.5c0.9-1.5,1.8-0.5,2.8-0.4
		C149.2,290,151.7,291,154.2,292.1z"/>
	<path class="st6" d="M337.1,336.9c-2.7-6.1-3.5-12.7-4.6-20.1c3.9,2.8,7.2,5.2,10.5,7.6c0.1,0.1,0.1,0.1,0.2,0.2
		c4,3.2,4,3.2,5.9-2.2c2.7,5,6.9,8.6,6.7,14.5C349.5,336.9,343.3,336.9,337.1,336.9z"/>
	<path class="st6" d="M95.7,336.9c-2.3-6.2-3.5-12.7-4.5-19.7c3.9,1.9,6.6,4.7,9.8,6.6c0.5,0.3,0.8,0.7,1.3,1c4.1,3,4.1,2.9,5.6-2.5
		c2.6,5,7,8.7,6.6,14.6C108.1,336.9,101.9,336.9,95.7,336.9z"/>
	<path class="st7" d="M337.1,336.9c6.2,0,12.4,0,18.6,0c13.2,0,26.3,0,39.5,0c2.4,0,4.7,0,7.1,0c15.3,0,30.7,0,46,0
		c0.6,0,1.3,0,1.9,0c0.6,0,1.2,0,1.3,0.7c0,0.7-0.6,0.8-1.1,0.8c-0.6,0-1.3,0-1.9,0c-48.7,0-97.4,0-146,0c-1,0-2,0.3-2.9-0.4
		c0.2-1.2,1.1-0.8,1.7-0.8c3.8,0,7.7-0.1,11.5,0C320.9,337.7,329,336.9,337.1,336.9z"/>
	<path class="st7" d="M95.7,336.9c6.2,0,12.4,0,18.7,0c7.6,0,15.2,0,22.8,0c6.7,0,13.3,0,20,0c0.9,0,2.5-0.6,2.5,0.8
		c0,1.4-1.6,0.8-2.5,0.8c-49,0-98,0-147,0c-0.8,0-1.8,0.3-2.4-0.8c15.8,0,31.6-0.9,47.4-0.8c1.8,0,3.6,0,5.5,0
		C72.3,336.9,84,336.9,95.7,336.9z"/>
	<path class="st8" d="M207.6,54.8c0,4.1,0,8.2-0.1,12.3c-4.9,3.3-9.7,6.6-14.6,9.9c0-4.4,0-8.8-0.1-13.2c4.1-2.6,8.2-5.1,12.3-7.7
		C205.9,55.6,206.8,55.2,207.6,54.8z"/>
	<path class="st8" d="M128.8,64.4c-0.4-4.2,0.8-8.1,1.9-12c1-3.5,2.4-6.9,2.4-11c1.1,1.8,1.1,4.8,4.1,3c2,2.3,1.3,5,1.2,7.6
		C138.3,57.2,133.7,62.9,128.8,64.4z"/>
	<path class="st8" d="M219.2,255.8c-2.1,2.4-4.9,3.9-7.5,5.5c-2-2.9-3.4-6-4.1-9.5c2.8-2.5,5.5-5.1,8.3-7.6
		C216.2,248.3,217.5,252.1,219.2,255.8z"/>
	<path class="st8" d="M154.2,292.1c-2.5-1.1-5-2.1-7.6-3.2c0.4-2.5,2.3-4.4,2.8-6.8c2.9,1.1,5.8,2.2,8.8,3.3
		C156.9,287.6,155.6,289.9,154.2,292.1z"/>
	<path class="st9" d="M192.9,77c4.9-3.3,9.7-6.6,14.6-9.9c0,4.8,0.1,9.7,0.1,14.5c0,25.2,0,50.5,0,75.7c0,4.9,1.6,6.5,6.6,6.5
		c17,0,34,0,51,0c1.1,0,2.2-0.3,3.2,0.5c0,8.9-0.1,17.9-0.1,26.8c0,2-0.4,2.8-2.7,2.8c-6.5-0.2-13-0.1-19.4-0.1c-15,0-30,0-44.9,0
		c-1.6-4.6-3.4-9-4.4-13.8c-1.5-7.2-7.7-11.9-15-11.1c-11,1.2-21.9,2.7-32.9,4.1c-1.1,0.1-2.2,0.3-3.3,0.4c-3.2,0.4-3.2,0.4-2.3-2.9
		c0.9-3.2,1.7-6.5,2.9-9.7c0.8-2.1,0.1-2.5-1.8-2.5c0-4.4-0.1-8.8-0.1-13.3c3.4-6.7,5.5-13.9,6.5-21.3c0.9-6.8-0.6-13.4-3.7-20.1
		c3.8,0,7.3-0.2,10.8,0c3.5,0.2,6.4-0.9,9.1-3c6.9-5.3,13.2-11.3,19.4-17.3C188.7,81.3,190.8,79.1,192.9,77z"/>
	<path class="st8" d="M111.2,166.7c4.3,0.8,8.7,1.6,13,2.4c2.6,6.6,4.7,13.4,8.1,19.7c1.7,3.1,0.8,7.2-1.9,9.4
		c-2.6,2.1-6.7,2.2-9.4,0.1c-2.8-2.2-4-6.2-2.2-9.3c1-1.7,0.8-2.9,0.1-4.5C116.2,178.7,113.7,172.7,111.2,166.7z"/>
	<path class="st8" d="M144.4,145.2c0,4.4,0.1,8.8,0.1,13.3c-7.3-0.1-14.7-0.2-22-0.3c-0.4-0.8-0.7-1.7-1.1-2.5
		c-0.6-1.2-0.1-1.8,1.1-2.2C129.8,150.8,137.1,148,144.4,145.2z"/>
	<path class="st6" d="M284.1,163.6c2.6,0,5.2,0,7.8,0c0.5,2.5,0.9,4.9-1.6,6.6c-1.4,1-2.9,1-4.4,0.2
		C283.3,168.8,283.7,166.2,284.1,163.6z"/>
	<path class="st5" d="M284.4,202.5c-3,0-6,0-9,0c-0.6,0-1.5,0.3-1.6-0.6c-0.1-0.8,0.7-1,1.3-1c6.3,0,12.6,0,18.9,0
		c0.6,0,1.2,0.1,1.2,0.8c0,0.7-0.6,0.8-1.2,0.8C290.8,202.5,287.6,202.5,284.4,202.5C284.4,202.5,284.4,202.5,284.4,202.5z"/>
	<path class="st9" d="M211.2,138.2c0-26.4,0-52.8,0-79.2c0-3.4,0.6-4.2,3.6-4.2c36.5,0,73.1,0,109.6,0c0.4,0,0.7,0.1,1.1,0.1
		c-5.9,3.5-11.8,7.1-17,12.9c16.3,0,31.9,0,47.5,0c0,0.2,0,0.5,0,0.7c-1,0-2,0-3,0c-14.3,0-28.7,0-43,0c-1.7,0-2.9,0.5-4,1.8
		c-4.6,5.3-8.3,11.1-10.9,17.6c-0.1,0.4-0.2,0.7-0.3,1.1c-3.7,8.8-5.2,18-4.6,27.5c-0.2,0.6-0.1,1.1,0.2,1.6c0.3,8,2.4,15.5,6,22.6
		c0,0.2,0.1,0.3,0.2,0.5c0.2,0.5,0.4,1,0.6,1.5c3.3,6.6,8,12.2,13.1,17.6c-26.9,0-53.9,0-80.8,0c0.6-3,1.1-6.1,0.4-9.2
		C228.4,144.2,221.9,137,211.2,138.2z M249,120.2c-6.3,0-12.6,0-18.9,0c-1.7,0-3.2,0.3-3.3,2.4c-0.1,2.1,1.5,2.6,3.1,2.6
		c12.7,0,25.4,0,38.1,0c1.6,0,3.2-0.4,3.2-2.6c-0.1-2.1-1.6-2.4-3.3-2.4C261.6,120.2,255.3,120.2,249,120.2z M248.7,110.9
		c-6.4,0-12.8,0-19.2,0c-1.3,0-2.7-0.1-2.7,1.8c0,1.8,1,2.6,2.8,2.6c0.2,0,0.4,0,0.5,0c12.6,0,25.2,0,37.8,0c1.6,0,3.2-0.2,3.2-2.1
		c0.1-2.1-1.6-2.3-3.3-2.3C261.5,110.9,255.1,110.9,248.7,110.9z M248.9,105.9c2.7,0,5.5,0,8.2,0c1.7,0,3-0.7,3-2.5
		c0-1.6-1.2-2.4-2.8-2.4c-5.5,0-10.9,0-16.4,0c-1.7,0-3,0.7-2.9,2.5c0,1.8,1.4,2.3,3.1,2.3C243.6,105.9,246.2,105.9,248.9,105.9z
		 M240,61.3c-0.3-1.9-1.2-3.2-3.3-3.2c-2.1,0-3.2,1.3-3.2,3.2c0,2,1.2,3.3,3.2,3.3C238.7,64.6,239.7,63.3,240,61.3z M228.6,61.3
		c-0.2-2-1.2-3.2-3.3-3.2c-2.1,0-3.2,1.3-3.2,3.3c0,2,1.2,3.3,3.2,3.3C227.4,64.6,228.5,63.3,228.6,61.3z M244.8,61.3
		c0.1,2.1,1.3,3.4,3.3,3.3c2-0.1,3.2-1.4,3.1-3.5c-0.1-1.9-1.2-3.1-3.2-3.1C245.9,58.1,244.9,59.3,244.8,61.3z"/>
	<path class="st10" d="M295,87.8c2.6-6.5,6.4-12.3,10.9-17.6c1.1-1.3,2.3-1.8,4-1.8c14.3,0.1,28.7,0,43,0c1,0,2,0,3,0
		c0-0.2,0-0.5,0-0.7c-15.6,0-31.2,0-47.5,0c5.3-5.7,11.1-9.4,17-12.9c12.7,0,25.3-0.1,38-0.1c1,0,2,0.2,2.3,1.5
		c0,10.5-0.1,21-0.1,31.4c-6.9,0-13.9,0-20.8,0.1c-1.7,0-2.3-0.5-2.2-2.2c0.1-3.3,0.1-6.6,0-9.9c0-1.4,0.3-2.8-0.4-4.3
		c-1.1,0.9-0.7,1.9-0.7,2.7c0,3.7-0.1,7.3,0,11c0,1.8-0.6,2.6-2.5,2.6c-7.5-0.1-15-0.1-22.5,0c-1.8,0-2.5-0.7-2.4-2.4
		c0.1-3.1,0.1-6.2,0-9.3c0-1.5,0.3-3-0.4-4.6c-1.1,0.9-0.7,1.9-0.7,2.7c0,3.6-0.1,7.1,0,10.7c0.1,2.2-0.5,3-2.9,3
		C305.1,87.7,300.1,87.8,295,87.8z M349.6,64.6c0-0.4,0-0.9,0-1.3c-2.8,0-5.6,0-8.4,0c-0.4,0-0.7,0.3-0.6,0.7c0,0.2,0.3,0.5,0.5,0.5
		C344,64.6,346.8,64.6,349.6,64.6z M340.6,61.4c0,0.2,0,0.5,0,0.7c3,0.6,5.9,0.4,8.9,0.2c0-0.3,0-0.6,0-0.9
		C346.6,61.4,343.6,61.4,340.6,61.4z M349.4,59.4c-2.9-0.7-5.8-0.7-8.7,0C343.7,60,346.5,60.1,349.4,59.4z"/>
	<path class="st4" d="M344.7,159.8c-3.2,1-6.5,0.2-9.8,0.5c-0.9-2.8-1.8-5.5-2.6-8.3c-0.3-1-1-1.2-1.8-1.3
		c-6.8-0.7-11.9-4.2-15.8-9.6c0.1-1-1.2-1.7-0.2-2.9c1.6-2.1,1.3-2.8-1.4-3.9c-1.2-1-0.7-2,0-3c0.3-0.1,0.7-0.2,1-0.3
		c6,2.4,12.4,4.4,16.4,10c-0.1,0.7-0.2,1.3,0.9,1.7c-0.4-0.7,0.7-1.8-0.9-1.6c0.3-0.6,1.1-1.3,1-1.8c-1.1-4.6,0.6-8.8,1.7-13.1
		c0.3-1.1,0.3-1.9-0.9-2.5c-2.6-1.4-4.5-3.7-6.5-5.8c-0.4-0.7-0.8-1.4-1.2-2.1c-3.3-3.7,0.3-8.3-1.7-12.2c-0.1-0.3,0.4-1,0.7-1.4
		c1.4-1.6,4.1-1.9,5.6-0.3c3.2,3.4,6.1,7,6.8,11.9c0.4,3.1,0.4,3.1,2.8,1.6c0,0.4,0,0.7,0,1.1c-0.3,0.6-0.7,1.1-1,1.7
		c-3.8,6.8-5.9,14.1-5.6,21.9c0,0.4,0,0.7,0,1.1c-0.4,6,1.1,11.6,3.6,17.4c0.6-5.6,1.6-10.5,5.8-14.1c0.4,0,0.7-0.1,1.1-0.1
		c2.1,0.6,4.1,1.2,3.3,4.2c-0.1,0.3,0.2,0.7,0.4,1c2.2,3.2,2.1,4.6-0.2,7.6C345.5,157.8,343.8,158.3,344.7,159.8z"/>
	<path class="st10" d="M314.7,141.1c3.9,5.4,9,8.9,15.8,9.6c0.9,0.1,1.5,0.3,1.8,1.3c0.8,2.8,1.7,5.5,2.6,8.3
		c-8.2,0-16.5-0.1-24.7-0.1c-5-5.4-9.7-11-13.1-17.6c-0.2-0.5-0.4-1-0.6-1.5c4.7,0,9.3,0.1,14,0c2-0.1,2.5,0.7,2.5,2.5
		c-0.1,4.6-0.1,9.1,0,13.7c0,0.8-0.5,2.2,0.8,2.2c1.3,0,0.8-1.4,0.8-2.2C314.6,151.9,314.6,146.5,314.7,141.1z"/>
	<path class="st10" d="M344.7,159.8c-0.9-1.5,0.7-2,1.3-2.8c2.3-3,2.4-4.5,0.2-7.6c-0.2-0.3-0.5-0.7-0.4-1c0.8-2.9-1.2-3.6-3.3-4.2
		c-0.4-2.4,0.3-3.4,3-3.3c6.7,0.2,13.3,0.1,20,0.1c0,5.9,0,11.8,0.1,17.7c-0.5,1.6-1.9,1.5-3.1,1.5
		C356.6,160.1,350.7,160.6,344.7,159.8z"/>
	<path class="st11" d="M211.2,138.2c10.8-1.3,17.2,6,18.7,12.7c0.7,3.1,0.2,6.2-0.4,9.2c-5,0-10,0-15,0.1c-2.1,0-3.5-0.9-3.5-3
		C211,151,210.6,144.6,211.2,138.2z"/>
	<path class="st12" d="M324.6,115.7c0.4,0.7,0.8,1.4,1.2,2.1c-3.1,0-6.2,0.2-9.2,0.1c-1.9-0.1-2.6,0.5-2.5,2.4
		c0.1,3.5,0.1,7.1,0.1,10.6c-0.3,0.1-0.7,0.2-1,0.3c0-3.5-0.2-6.9-0.1-10.4c0.1-2.2-0.5-3-2.9-3c-6.6,0.2-13.2,0.1-19.7,0.1
		c-0.3-0.5-0.4-1-0.2-1.6c6.8,0,13.5-0.1,20.3,0c1.8,0,2.6-0.4,2.5-2.4c-0.1-7.6-0.1-15.2,0-22.7c0-1.8-0.6-2.4-2.4-2.3
		c-5.3,0.1-10.6,0-15.9,0c0.1-0.4,0.2-0.7,0.3-1.1c5,0,10.1-0.1,15.1,0c2.4,0.1,3-0.7,2.9-3c-0.2-3.6-0.1-7.1,0-10.7
		c0-0.8-0.4-1.8,0.7-2.7c0.7,1.6,0.3,3.1,0.4,4.6c0.1,3.1,0.1,6.2,0,9.3c0,1.8,0.7,2.5,2.4,2.4c7.5-0.1,15-0.1,22.5,0
		c1.9,0,2.6-0.8,2.5-2.6c-0.1-3.7-0.1-7.3,0-11c0-0.8-0.4-1.8,0.7-2.7c0.7,1.5,0.4,2.9,0.4,4.3c0.1,3.3,0.1,6.6,0,9.9
		c0,1.7,0.5,2.2,2.2,2.2c6.9-0.1,13.9-0.1,20.8-0.1c0.1,0,0.3,0,0.4,0c0,0.4,0,0.8,0,1.1c-0.2,0-0.3,0-0.5,0c-6.9,0-13.8,0-20.7,0
		c-1.7,0-2.5,0.4-2.4,2.3c0.1,2,0,4,0,6c-0.4,0.2-0.7,0.4-1.1,0.5c0-2.3-0.1-4.6,0-6.8c0-1.4-0.4-2-1.9-2c-7.8,0-15.7,0-23.5,0
		c-1.3,0-2,0.3-2,1.8c0,7.9,0,15.9,0,23.8c0,0.7-0.1,1.7,0.9,1.7C318.1,116.2,321.4,117.1,324.6,115.7z"/>
	<path class="st12" d="M365.6,141.1c-6.7,0-13.3,0.1-20-0.1c-2.7-0.1-3.4,0.9-3,3.3c-0.4,0-0.7,0.1-1.1,0.1c0.5-2.8-0.8-3.6-3.4-3.3
		c-1.9,0.2-3.9,0-5.9,0c0-0.4,0-0.7,0-1.1c2.4,0,4.7-0.1,7.1,0c1.8,0.1,2.3-0.6,2.3-2.4c-0.1-5.3,0-10.5,0-15.8c0-3.9,0-3.9-3.8-3.8
		c0.3-0.6,0.7-1.1,1-1.7c3.6,0.6,2.6-2.1,2.7-3.9c0.1-0.2,0.3-0.3,0.4-0.5c0.6,0.3,0.7,0.8,0.7,1.4c-0.4,2.6,0.8,3.1,3.2,3.1
		c6.6-0.1,13.2-0.1,19.8-0.1l0.2,0l0.2,0c0,0.6,0,1.1,0,1.7c-0.2,0-0.3,0-0.5,0c-6.8,0-13.7,0-20.5,0c-1.8,0-2.6,0.4-2.6,2.4
		c0.1,5.7,0.1,11.5,0,17.2c0,2,0.8,2.4,2.6,2.4c6.8-0.1,13.7,0,20.5-0.1l0.2,0l0.2,0c0,0.4,0,0.8,0,1.1
		C365.9,141.1,365.7,141.1,365.6,141.1z"/>
	<path class="st11" d="M366,87.8c-0.2,0-0.3,0-0.4,0c0-10.5,0.1-21,0.1-31.4c0.5,0.4,0.5,1,0.5,1.5C366.1,67.8,366.1,77.8,366,87.8z
		"/>
	<path class="st11" d="M366.1,116.4l-0.2,0c0,0-0.2,0-0.2,0c0-9.1,0-18.3,0-27.4c0.2,0,0.3,0,0.5,0
		C366.1,98.1,366.1,107.2,366.1,116.4z"/>
	<path class="st11" d="M366.1,139.9l-0.2,0c0,0-0.2,0-0.2,0c0-7.3,0-14.6,0-21.9c0.2,0,0.3,0,0.5,0
		C366.1,125.3,366.1,132.6,366.1,139.9z"/>
	<path class="st11" d="M365.6,141.1c0.2,0,0.3,0,0.5,0c0,5.4,0.1,10.8,0.1,16.2c0,0.5,0,1.1-0.5,1.5
		C365.6,152.9,365.6,147,365.6,141.1z"/>
	<path class="st0" d="M222.8,273.4c-0.3-0.3-0.5-0.7-0.3-1.1c0.3,0.1,0.5,0.3,0.8,0.4C223.1,273,223,273.2,222.8,273.4z"/>
	<path class="st2" d="M294.7,88.9c5.3,0,10.6,0.1,15.9,0c1.8,0,2.4,0.5,2.4,2.3c-0.1,7.6-0.1,15.2,0,22.7c0,2-0.7,2.5-2.5,2.4
		c-6.8-0.1-13.5,0-20.3,0C289.5,106.9,291,97.7,294.7,88.9z"/>
	<path class="st2" d="M290.4,118c6.6,0,13.2,0.1,19.7-0.1c2.3-0.1,3,0.7,2.9,3c-0.1,3.5,0,6.9,0.1,10.4c-0.7,1-1.2,2,0,3
		c0,1-0.2,2-0.1,3c0.2,2-0.4,2.8-2.6,2.7c-3.4-0.2-6.8-0.1-10.1,0c-1.3,0-2.8-0.5-3.9,0.6C292.8,133.5,290.7,126,290.4,118z"/>
	<path class="st3" d="M249,120.2c6.3,0,12.6,0,18.9,0c1.7,0,3.2,0.3,3.3,2.4c0.1,2.1-1.5,2.5-3.2,2.6c-12.7,0-25.4,0-38.1,0
		c-1.6,0-3.2-0.4-3.1-2.6c0.1-2.1,1.6-2.4,3.3-2.4C236.4,120.2,242.7,120.2,249,120.2z"/>
	<path class="st3" d="M248.7,110.9c6.4,0,12.8,0,19.2,0c1.7,0,3.3,0.2,3.3,2.3c-0.1,1.9-1.6,2.1-3.2,2.1c-12.6,0-25.2,0-37.8,0
		c-0.2,0-0.4,0-0.5,0c-1.7,0-2.8-0.7-2.8-2.6c0-1.9,1.4-1.8,2.7-1.8C236,110.9,242.3,110.9,248.7,110.9z"/>
	<path class="st2" d="M248.9,105.9c-2.6,0-5.3,0-7.9,0c-1.7,0-3-0.5-3.1-2.3c0-1.8,1.3-2.5,2.9-2.5c5.5,0,10.9,0,16.4,0
		c1.6,0,2.8,0.8,2.8,2.4c0,1.8-1.3,2.5-3,2.5C254.4,105.9,251.6,105.9,248.9,105.9z"/>
	<path class="st12" d="M296.3,140.6c1.1-1.2,2.6-0.6,3.9-0.6c3.4-0.1,6.8-0.1,10.1,0c2.1,0.1,2.8-0.7,2.6-2.7c-0.1-1,0.1-2,0.1-3
		c2.7,1.1,3.1,1.8,1.4,3.9c-1,1.2,0.3,2,0.2,2.9c0,5.4-0.1,10.8-0.2,16.1c0,0.8,0.5,2.2-0.8,2.2c-1.3,0-0.8-1.4-0.8-2.2
		c-0.1-4.6-0.1-9.1,0-13.7c0-1.9-0.5-2.6-2.5-2.5c-4.7,0.1-9.3,0-14,0C296.4,140.9,296.4,140.8,296.3,140.6z"/>
	<path class="st5" d="M240,61.3c-0.3,2-1.3,3.3-3.3,3.3c-2,0-3.2-1.3-3.2-3.3c0-2,1.2-3.2,3.2-3.2C238.8,58.1,239.7,59.4,240,61.3z"
		/>
	<path class="st5" d="M228.6,61.3c-0.1,2.1-1.2,3.3-3.2,3.4c-2,0-3.2-1.3-3.2-3.3c0-2,1.1-3.3,3.2-3.3
		C227.5,58.1,228.5,59.3,228.6,61.3z"/>
	<path class="st5" d="M244.8,61.3c0.1-2,1.1-3.2,3.3-3.2c2,0,3.1,1.2,3.2,3.1c0.1,2-1.1,3.4-3.1,3.5C246,64.7,244.9,63.4,244.8,61.3
		z"/>
	<path class="st5" d="M349.6,64.6c-2.8,0-5.6,0-8.4,0c-0.2,0-0.5-0.3-0.5-0.5c-0.1-0.4,0.2-0.7,0.6-0.7c2.8,0,5.6,0,8.4,0
		C349.6,63.8,349.6,64.2,349.6,64.6z"/>
	<path class="st5" d="M340.6,61.4c3,0,5.9,0,8.9,0c0,0.3,0,0.6,0,0.9c-3,0.2-5.9,0.4-8.9-0.2C340.6,61.9,340.6,61.6,340.6,61.4z"/>
	<path class="st5" d="M349.4,59.4c-2.9,0.7-5.8,0.6-8.7,0C343.6,58.7,346.5,58.7,349.4,59.4z"/>
	<path class="st13" d="M324.6,115.7c-3.1,1.3-6.4,0.5-9.6,0.5c-1,0-0.9-1-0.9-1.7c0-7.9,0-15.9,0-23.8c0-1.5,0.7-1.8,2-1.8
		c7.8,0,15.7,0,23.5,0c1.5,0,1.9,0.6,1.9,2c-0.1,2.3,0,4.6,0,6.8c-2.8,2.3-3.4,5.3-2.2,8.6c1,2.5,2.1,4.8,0.5,7.4l0,0
		c-1.2,0-1.4,0.7-1.1,1.7l0,0c-2.4,1.5-2.4,1.5-2.8-1.6c-0.7-4.9-3.5-8.5-6.8-11.9c-1.5-1.6-4.2-1.3-5.6,0.3
		c-0.3,0.4-0.9,1.1-0.7,1.4C324.8,107.4,321.3,112,324.6,115.7z"/>
	<path class="st13" d="M314.1,131c0-3.5,0.1-7.1-0.1-10.6c-0.1-2,0.6-2.5,2.5-2.4c3.1,0.1,6.1-0.1,9.2-0.1c2,2.1,3.9,4.4,6.5,5.8
		c1.1,0.6,1.1,1.4,0.9,2.5c-1.1,4.3-2.8,8.5-1.7,13.1c0.1,0.5-0.6,1.2-1,1.8c0,0,0,0,0,0C326.5,135.4,320.1,133.4,314.1,131z"/>
	<path class="st13" d="M337.7,118c3.8-0.1,3.8-0.1,3.8,3.8c0,5.3-0.1,10.5,0,15.8c0,1.7-0.5,2.5-2.3,2.4c-2.4-0.1-4.7,0-7.1,0
		C331.8,132.1,333.9,124.9,337.7,118z"/>
	<path class="st13" d="M332.1,141c2,0,4,0.2,5.9,0c2.7-0.3,3.9,0.6,3.4,3.3c-4.2,3.6-5.2,8.5-5.8,14.1
		C333.2,152.6,331.8,147,332.1,141z"/>
	<path class="st13" d="M341.4,112.4c-0.1,1.8,0.9,4.5-2.7,3.9c0-0.4,0-0.7,0-1.1c0,0,0,0,0,0c0.9-0.2,1.2-0.8,1.1-1.7c0,0,0,0,0,0
		C340.4,113.2,340.9,112.8,341.4,112.4z"/>
	<path class="st13" d="M330.5,141.1c1.6-0.2,0.6,1,0.9,1.6C330.3,142.4,330.4,141.7,330.5,141.1C330.5,141,330.5,141.1,330.5,141.1z
		"/>
	<path class="st10" d="M365.6,89c0,9.1,0,18.3,0,27.4c-6.6,0-13.2-0.1-19.8,0.1c-2.4,0.1-3.6-0.5-3.2-3.1c0.1-0.5-0.1-1.1-0.7-1.4
		c0.3-1.1,1.3-1.5,2.1-2.1c1.7-1.3,2.9-3,3.7-5c0.3-0.6,0.8-1.4-0.4-1.7c-2.1-0.6-1.8-1.8-0.7-3c1.3-1.4,0.3-2-0.8-2.6
		c-1-0.6-2.1-0.3-3.2-0.3c0-2,0.1-4,0-6c-0.1-1.8,0.7-2.3,2.4-2.3C351.8,89,358.7,88.9,365.6,89z"/>
	<path class="st4" d="M342.6,97.2c1.1,0.1,2.2-0.2,3.2,0.3c1.1,0.6,2.1,1.2,0.8,2.6c-1.1,1.2-1.3,2.5,0.7,3c1.2,0.3,0.6,1.1,0.4,1.7
		c-0.8,2-2,3.7-3.7,5c-0.8,0.6-1.8,1-2.1,2.1c-0.1,0.2-0.3,0.3-0.4,0.5c-0.5,0.4-1.1,0.8-1.6,1.2c1.5-2.6,0.4-4.9-0.5-7.4
		c-1.3-3.3-0.6-6.2,2.2-8.6C341.8,97.5,342.2,97.4,342.6,97.2z"/>
	<path class="st10" d="M365.6,118c0,7.3,0,14.6,0,21.9c-6.8,0-13.7,0-20.5,0.1c-1.8,0-2.6-0.4-2.6-2.4c0.1-5.7,0.1-11.5,0-17.2
		c0-2,0.8-2.4,2.6-2.4C351.9,118.1,358.8,118,365.6,118z"/>
	<path class="st4" d="M339.8,113.6c0.1,0.8-0.3,1.4-1.1,1.7C338.4,114.3,338.6,113.6,339.8,113.6z"/>
</g>
</svg>
